<?plantuml 1.2026.2?><svg xmlns="http://www.w3.org/2000/svg" xmlns:xlink="http://www.w3.org/1999/xlink" contentStyleType="text/css" data-diagram-type="CLASS" height="453px" preserveAspectRatio="none" style="width:989px;height:453px;background:#FFFFFF;" version="1.1" viewBox="0 0 989 453" width="989px" zoomAndPan="magnify"><defs/><g><!--cluster SearchApi (v2 target)--><g class="cluster" data-qualified-name="SearchApi .v2 target." data-source-line="4" id="ent0002"><path d="M16.5,4 L169.6064,4 A3.75,3.75 0 0 1 172.1064,6.5 L179.1064,26.4883 L671.5,26.4883 A2.5,2.5 0 0 1 674,28.9883 L674,443.5 A2.5,2.5 0 0 1 671.5,446 L16.5,446 A2.5,2.5 0 0 1 14,443.5 L14,6.5 A2.5,2.5 0 0 1 16.5,4" fill="none" style="stroke:#000000;stroke-width:1.5;"/><line style="stroke:#000000;stroke-width:1.5;" x1="14" x2="179.1064" y1="26.4883" y2="26.4883"/><text fill="#000000" font-family="sans-serif" font-size="14" font-weight="bold" lengthAdjust="spacing" textLength="152.1064" x="18" y="19.5352">SearchApi (v2 target)</text></g><!--cluster Shared--><g class="cluster" data-qualified-name="Shared" data-source-line="15" id="ent0012"><path d="M684.5,124 L734.7666,124 A3.75,3.75 0 0 1 737.2666,126.5 L744.2666,146.4883 L979.5,146.4883 A2.5,2.5 0 0 1 982,148.9883 L982,342.5 A2.5,2.5 0 0 1 979.5,345 L684.5,345 A2.5,2.5 0 0 1 682,342.5 L682,126.5 A2.5,2.5 0 0 1 684.5,124" fill="none" style="stroke:#000000;stroke-width:1.5;"/><line style="stroke:#000000;stroke-width:1.5;" x1="682" x2="744.2666" y1="146.4883" y2="146.4883"/><text fill="#000000" font-family="sans-serif" font-size="14" font-weight="bold" lengthAdjust="spacing" textLength="49.2666" x="686" y="139.5352">Shared</text></g><!--cluster Model--><g class="cluster" data-qualified-name="Shared.Model" data-source-line="14" id="ent0010"><path d="M692.5,151 L737.1816,151 A3.75,3.75 0 0 1 739.6816,153.5 L746.6816,173.4883 L971.5,173.4883 A2.5,2.5 0 0 1 974,175.9883 L974,334.5 A2.5,2.5 0 0 1 971.5,337 L692.5,337 A2.5,2.5 0 0 1 690,334.5 L690,153.5 A2.5,2.5 0 0 1 692.5,151" fill="none" style="stroke:#000000;stroke-width:1.5;"/><line style="stroke:#000000;stroke-width:1.5;" x1="690" x2="746.6816" y1="173.4883" y2="173.4883"/><text fill="#000000" font-family="sans-serif" font-size="14" font-weight="bold" lengthAdjust="spacing" textLength="43.6816" x="694" y="166.5352">Model</text></g><!--class SearchService--><g class="entity" data-qualified-name="SearchApi .v2 target..SearchService" data-source-line="5" id="ent0003"><rect fill="#F1F1F1" height="48" rx="2.5" ry="2.5" style="stroke:#181818;stroke-width:0.5;" width="123.9912" x="542" y="31"/><ellipse cx="557" cy="47" fill="#ADD1B2" rx="11" ry="11" style="stroke:#181818;stroke-width:1;"/><path d="M559.4731,53.1431 Q558.8921,53.4419 558.2529,53.5913 Q557.6138,53.7407 556.9082,53.7407 Q554.4014,53.7407 553.0815,52.0889 Q551.7617,50.437 551.7617,47.3159 Q551.7617,44.1865 553.0815,42.5347 Q554.4014,40.8828 556.9082,40.8828 Q557.6138,40.8828 558.2612,41.0322 Q558.9087,41.1816 559.4731,41.4805 L559.4731,44.2031 Q558.8423,43.6221 558.2488,43.3523 Q557.6553,43.0825 557.0244,43.0825 Q555.6797,43.0825 554.9949,44.1492 Q554.3101,45.2158 554.3101,47.3159 Q554.3101,49.4077 554.9949,50.4744 Q555.6797,51.541 557.0244,51.541 Q557.6553,51.541 558.2488,51.2712 Q558.8423,51.0015 559.4731,50.4204 Z " fill="#000000"/><text fill="#000000" font-family="sans-serif" font-size="14" lengthAdjust="spacing" textLength="91.9912" x="571" y="52.291">SearchService</text><line style="stroke:#181818;stroke-width:0.5;" x1="543" x2="664.9912" y1="63" y2="63"/><line style="stroke:#181818;stroke-width:0.5;" x1="543" x2="664.9912" y1="71" y2="71"/></g><!--class SearchLogic--><g class="entity" data-qualified-name="SearchApi .v2 target..SearchLogic" data-source-line="6" id="ent0004"><rect fill="#F1F1F1" height="48" rx="2.5" ry="2.5" style="stroke:#181818;stroke-width:0.5;" width="112.6709" x="343.5" y="281"/><ellipse cx="358.5" cy="297" fill="#ADD1B2" rx="11" ry="11" style="stroke:#181818;stroke-width:1;"/><path d="M360.9731,303.1431 Q360.3921,303.4419 359.7529,303.5913 Q359.1138,303.7407 358.4082,303.7407 Q355.9014,303.7407 354.5815,302.0889 Q353.2617,300.437 353.2617,297.3159 Q353.2617,294.1865 354.5815,292.5347 Q355.9014,290.8828 358.4082,290.8828 Q359.1138,290.8828 359.7612,291.0322 Q360.4087,291.1816 360.9731,291.4805 L360.9731,294.2031 Q360.3423,293.6221 359.7488,293.3523 Q359.1553,293.0825 358.5244,293.0825 Q357.1797,293.0825 356.4949,294.1492 Q355.8101,295.2158 355.8101,297.3159 Q355.8101,299.4077 356.4949,300.4744 Q357.1797,301.541 358.5244,301.541 Q359.1553,301.541 359.7488,301.2712 Q360.3423,301.0015 360.9731,300.4204 Z " fill="#000000"/><text fill="#000000" font-family="sans-serif" font-size="14" lengthAdjust="spacing" textLength="80.6709" x="372.5" y="302.291">SearchLogic</text><line style="stroke:#181818;stroke-width:0.5;" x1="344.5" x2="455.1709" y1="313" y2="313"/><line style="stroke:#181818;stroke-width:0.5;" x1="344.5" x2="455.1709" y1="321" y2="321"/></g><!--class IDatabase--><g class="entity" data-qualified-name="SearchApi .v2 target..IDatabase" data-source-line="7" id="ent0005"><rect fill="#F1F1F1" height="48" rx="2.5" ry="2.5" style="stroke:#181818;stroke-width:0.5;" width="98.6982" x="199.5" y="390"/><ellipse cx="214.5" cy="406" fill="#B4A7E5" rx="11" ry="11" style="stroke:#181818;stroke-width:1;"/><path d="M210.9277,402.2651 L210.9277,400.1069 L218.3071,400.1069 L218.3071,402.2651 L215.8418,402.2651 L215.8418,410.3418 L218.3071,410.3418 L218.3071,412.5 L210.9277,412.5 L210.9277,410.3418 L213.3931,410.3418 L213.3931,402.2651 Z " fill="#000000"/><text fill="#000000" font-family="sans-serif" font-size="14" font-style="italic" lengthAdjust="spacing" textLength="66.6982" x="228.5" y="411.291">IDatabase</text><line style="stroke:#181818;stroke-width:0.5;" x1="200.5" x2="297.1982" y1="422" y2="422"/><line style="stroke:#181818;stroke-width:0.5;" x1="200.5" x2="297.1982" y1="430" y2="430"/></g><!--class DatabasePostgres--><g class="entity" data-qualified-name="SearchApi .v2 target..DatabasePostgres" data-source-line="8" id="ent0006"><rect fill="#F1F1F1" height="48" rx="2.5" ry="2.5" style="stroke:#181818;stroke-width:0.5;" width="152.7705" x="172.5" y="281"/><ellipse cx="187.5" cy="297" fill="#ADD1B2" rx="11" ry="11" style="stroke:#181818;stroke-width:1;"/><path d="M189.9731,303.1431 Q189.3921,303.4419 188.7529,303.5913 Q188.1138,303.7407 187.4082,303.7407 Q184.9014,303.7407 183.5815,302.0889 Q182.2617,300.437 182.2617,297.3159 Q182.2617,294.1865 183.5815,292.5347 Q184.9014,290.8828 187.4082,290.8828 Q188.1138,290.8828 188.7612,291.0322 Q189.4087,291.1816 189.9731,291.4805 L189.9731,294.2031 Q189.3423,293.6221 188.7488,293.3523 Q188.1553,293.0825 187.5244,293.0825 Q186.1797,293.0825 185.4949,294.1492 Q184.8101,295.2158 184.8101,297.3159 Q184.8101,299.4077 185.4949,300.4744 Q186.1797,301.541 187.5244,301.541 Q188.1553,301.541 188.7488,301.2712 Q189.3423,301.0015 189.9731,300.4204 Z " fill="#000000"/><text fill="#000000" font-family="sans-serif" font-size="14" lengthAdjust="spacing" textLength="120.7705" x="201.5" y="302.291">DatabasePostgres</text><line style="stroke:#181818;stroke-width:0.5;" x1="173.5" x2="324.2705" y1="313" y2="313"/><line style="stroke:#181818;stroke-width:0.5;" x1="173.5" x2="324.2705" y1="321" y2="321"/></g><!--class DatabaseSqlite--><g class="entity" data-qualified-name="SearchApi .v2 target..DatabaseSqlite" data-source-line="9" id="ent0007"><rect fill="#F1F1F1" height="48" rx="2.5" ry="2.5" style="stroke:#181818;stroke-width:0.5;" width="132.1465" x="22" y="281"/><ellipse cx="37" cy="297" fill="#ADD1B2" rx="11" ry="11" style="stroke:#181818;stroke-width:1;"/><path d="M39.4731,303.1431 Q38.8921,303.4419 38.2529,303.5913 Q37.6138,303.7407 36.9082,303.7407 Q34.4014,303.7407 33.0815,302.0889 Q31.7617,300.437 31.7617,297.3159 Q31.7617,294.1865 33.0815,292.5347 Q34.4014,290.8828 36.9082,290.8828 Q37.6138,290.8828 38.2612,291.0322 Q38.9087,291.1816 39.4731,291.4805 L39.4731,294.2031 Q38.8423,293.6221 38.2488,293.3523 Q37.6553,293.0825 37.0244,293.0825 Q35.6797,293.0825 34.9949,294.1492 Q34.3101,295.2158 34.3101,297.3159 Q34.3101,299.4077 34.9949,300.4744 Q35.6797,301.541 37.0244,301.541 Q37.6553,301.541 38.2488,301.2712 Q38.8423,301.0015 39.4731,300.4204 Z " fill="#000000"/><text fill="#000000" font-family="sans-serif" font-size="14" lengthAdjust="spacing" textLength="100.1465" x="51" y="302.291">DatabaseSqlite</text><line style="stroke:#181818;stroke-width:0.5;" x1="23" x2="153.1465" y1="313" y2="313"/><line style="stroke:#181818;stroke-width:0.5;" x1="23" x2="153.1465" y1="321" y2="321"/></g><!--class CachedSearchService--><g class="entity" data-qualified-name="SearchApi .v2 target..CachedSearchService" data-source-line="10" id="ent0008"><rect fill="#F1F1F1" height="48" rx="2.5" ry="2.5" style="stroke:#181818;stroke-width:0.5;" width="247.5576" x="418" y="178"/><ellipse cx="433" cy="194" fill="#ADD1B2" rx="11" ry="11" style="stroke:#181818;stroke-width:1;"/><path d="M435.4731,200.1431 Q434.8921,200.4419 434.2529,200.5913 Q433.6138,200.7407 432.9082,200.7407 Q430.4014,200.7407 429.0815,199.0889 Q427.7617,197.437 427.7617,194.3159 Q427.7617,191.1865 429.0815,189.5347 Q430.4014,187.8828 432.9082,187.8828 Q433.6138,187.8828 434.2612,188.0322 Q434.9087,188.1816 435.4731,188.4805 L435.4731,191.2031 Q434.8423,190.6221 434.2488,190.3523 Q433.6553,190.0825 433.0244,190.0825 Q431.6797,190.0825 430.9949,191.1492 Q430.3101,192.2158 430.3101,194.3159 Q430.3101,196.4077 430.9949,197.4744 Q431.6797,198.541 433.0244,198.541 Q433.6553,198.541 434.2488,198.2712 Q434.8423,198.0015 435.4731,197.4204 Z " fill="#000000"/><text fill="#000000" font-family="sans-serif" font-size="14" lengthAdjust="spacing" textLength="215.5576" x="447" y="199.291">CachedSearchService &#171;planned&#187;</text><line style="stroke:#181818;stroke-width:0.5;" x1="419" x2="664.5576" y1="210" y2="210"/><line style="stroke:#181818;stroke-width:0.5;" x1="419" x2="664.5576" y1="218" y2="218"/></g><!--class IQueryCache--><g class="entity" data-qualified-name="SearchApi .v2 target..IQueryCache" data-source-line="11" id="ent0009"><rect fill="#F1F1F1" height="48" rx="2.5" ry="2.5" style="stroke:#181818;stroke-width:0.5;" width="191.1953" x="474.5" y="281"/><ellipse cx="489.5" cy="297" fill="#B4A7E5" rx="11" ry="11" style="stroke:#181818;stroke-width:1;"/><path d="M485.9277,293.2651 L485.9277,291.1069 L493.3071,291.1069 L493.3071,293.2651 L490.8418,293.2651 L490.8418,301.3418 L493.3071,301.3418 L493.3071,303.5 L485.9277,303.5 L485.9277,301.3418 L488.3931,301.3418 L488.3931,293.2651 Z " fill="#000000"/><text fill="#000000" font-family="sans-serif" font-size="14" font-style="italic" lengthAdjust="spacing" textLength="159.1953" x="503.5" y="302.291">IQueryCache &#171;planned&#187;</text><line style="stroke:#181818;stroke-width:0.5;" x1="475.5" x2="664.6953" y1="313" y2="313"/><line style="stroke:#181818;stroke-width:0.5;" x1="475.5" x2="664.6953" y1="321" y2="321"/></g><!--class SearchRequest--><g class="entity" data-qualified-name="Shared.Model.SearchRequest" data-source-line="15" id="ent0011"><rect fill="#F1F1F1" height="48" rx="2.5" ry="2.5" style="stroke:#181818;stroke-width:0.5;" width="130.9844" x="698.5" y="178"/><ellipse cx="713.5" cy="194" fill="#ADD1B2" rx="11" ry="11" style="stroke:#181818;stroke-width:1;"/><path d="M715.9731,200.1431 Q715.3921,200.4419 714.7529,200.5913 Q714.1138,200.7407 713.4082,200.7407 Q710.9014,200.7407 709.5815,199.0889 Q708.2617,197.437 708.2617,194.3159 Q708.2617,191.1865 709.5815,189.5347 Q710.9014,187.8828 713.4082,187.8828 Q714.1138,187.8828 714.7612,188.0322 Q715.4087,188.1816 715.9731,188.4805 L715.9731,191.2031 Q715.3423,190.6221 714.7488,190.3523 Q714.1553,190.0825 713.5244,190.0825 Q712.1797,190.0825 711.4949,191.1492 Q710.8101,192.2158 710.8101,194.3159 Q710.8101,196.4077 711.4949,197.4744 Q712.1797,198.541 713.5244,198.541 Q714.1553,198.541 714.7488,198.2712 Q715.3423,198.0015 715.9731,197.4204 Z " fill="#000000"/><text fill="#000000" font-family="sans-serif" font-size="14" lengthAdjust="spacing" textLength="98.9844" x="727.5" y="199.291">SearchRequest</text><line style="stroke:#181818;stroke-width:0.5;" x1="699.5" x2="828.4844" y1="210" y2="210"/><line style="stroke:#181818;stroke-width:0.5;" x1="699.5" x2="828.4844" y1="218" y2="218"/></g><!--class SearchResult--><g class="entity" data-qualified-name="Shared.Model.SearchResult" data-source-line="16" id="ent0013"><rect fill="#F1F1F1" height="48" rx="2.5" ry="2.5" style="stroke:#181818;stroke-width:0.5;" width="118.4199" x="848" y="178"/><ellipse cx="863" cy="194" fill="#ADD1B2" rx="11" ry="11" style="stroke:#181818;stroke-width:1;"/><path d="M865.4731,200.1431 Q864.8921,200.4419 864.2529,200.5913 Q863.6138,200.7407 862.9082,200.7407 Q860.4014,200.7407 859.0815,199.0889 Q857.7617,197.437 857.7617,194.3159 Q857.7617,191.1865 859.0815,189.5347 Q860.4014,187.8828 862.9082,187.8828 Q863.6138,187.8828 864.2612,188.0322 Q864.9087,188.1816 865.4731,188.4805 L865.4731,191.2031 Q864.8423,190.6221 864.2488,190.3523 Q863.6553,190.0825 863.0244,190.0825 Q861.6797,190.0825 860.9949,191.1492 Q860.3101,192.2158 860.3101,194.3159 Q860.3101,196.4077 860.9949,197.4744 Q861.6797,198.541 863.0244,198.541 Q863.6553,198.541 864.2488,198.2712 Q864.8423,198.0015 865.4731,197.4204 Z " fill="#000000"/><text fill="#000000" font-family="sans-serif" font-size="14" lengthAdjust="spacing" textLength="86.4199" x="877" y="199.291">SearchResult</text><line style="stroke:#181818;stroke-width:0.5;" x1="849" x2="965.4199" y1="210" y2="210"/><line style="stroke:#181818;stroke-width:0.5;" x1="849" x2="965.4199" y1="218" y2="218"/></g><!--class DocumentHit--><g class="entity" data-qualified-name="Shared.Model.DocumentHit" data-source-line="17" id="ent0014"><rect fill="#F1F1F1" height="48" rx="2.5" ry="2.5" style="stroke:#181818;stroke-width:0.5;" width="121.3115" x="844.5" y="281"/><ellipse cx="859.5" cy="297" fill="#ADD1B2" rx="11" ry="11" style="stroke:#181818;stroke-width:1;"/><path d="M861.9731,303.1431 Q861.3921,303.4419 860.7529,303.5913 Q860.1138,303.7407 859.4082,303.7407 Q856.9014,303.7407 855.5815,302.0889 Q854.2617,300.437 854.2617,297.3159 Q854.2617,294.1865 855.5815,292.5347 Q856.9014,290.8828 859.4082,290.8828 Q860.1138,290.8828 860.7612,291.0322 Q861.4087,291.1816 861.9731,291.4805 L861.9731,294.2031 Q861.3423,293.6221 860.7488,293.3523 Q860.1553,293.0825 859.5244,293.0825 Q858.1797,293.0825 857.4949,294.1492 Q856.8101,295.2158 856.8101,297.3159 Q856.8101,299.4077 857.4949,300.4744 Q858.1797,301.541 859.5244,301.541 Q860.1553,301.541 860.7488,301.2712 Q861.3423,301.0015 861.9731,300.4204 Z " fill="#000000"/><text fill="#000000" font-family="sans-serif" font-size="14" lengthAdjust="spacing" textLength="89.3115" x="873.5" y="302.291">DocumentHit</text><line style="stroke:#181818;stroke-width:0.5;" x1="845.5" x2="964.8115" y1="313" y2="313"/><line style="stroke:#181818;stroke-width:0.5;" x1="845.5" x2="964.8115" y1="321" y2="321"/></g><g class="link" data-entity-1="ent0003" data-entity-2="ent0008" data-link-type="dependency" id="lnk15"><polygon fill="#181818" points="551.9367,177.7611,559.1529,171.0584,553.9024,173.1637,551.7971,167.9132,551.9367,177.7611" style="stroke:#181818;stroke-width:1;"/><path d="M594.0386,79.2968 C582.4688,106.3553 565.8549,145.2103 554.2956,172.2442" fill="none" style="stroke:#181818;stroke-width:1;"/><text fill="#000000" font-family="sans-serif" font-size="13" lengthAdjust="spacing" textLength="28.5645" x="588" y="111.5684">uses</text></g><g class="link" data-entity-1="ent0008" data-entity-2="ent0004" data-link-type="dependency" id="lnk16"><polygon fill="#181818" points="432.4261,280.9364,442.0786,278.9795,436.5006,278.0383,437.4417,272.4603,432.4261,280.9364" style="stroke:#181818;stroke-width:1;"/><path d="M509.4223,226.1714 C486.3318,242.595 460.3719,261.0594 437.3154,277.4587" fill="none" style="stroke:#181818;stroke-width:1;"/><text fill="#000000" font-family="sans-serif" font-size="13" lengthAdjust="spacing" textLength="55.9165" x="486" y="258.5684">executes</text></g><g class="link" data-entity-1="ent0008" data-entity-2="ent0009" data-link-type="dependency" id="lnk17"><polygon fill="#181818" points="563.6061,280.9364,565.0564,271.1949,562.2704,276.1181,557.3471,273.3321,563.6061,280.9364" style="stroke:#181818;stroke-width:1;"/><path d="M548.4238,226.1714 C552.9768,242.595 557.4569,258.7551 562.0032,275.1545" fill="none" style="stroke:#181818;stroke-width:1;"/><text fill="#000000" font-family="sans-serif" font-size="13" lengthAdjust="spacing" textLength="35.8071" x="561" y="258.5684">cache</text></g><g class="link" data-entity-1="ent0004" data-entity-2="ent0005" data-link-type="dependency" id="lnk18"><polygon fill="#181818" points="281.7008,389.8279,291.3567,387.8881,285.7804,386.9371,286.7314,381.3607,281.7008,389.8279" style="stroke:#181818;stroke-width:1;"/><path d="M367.2352,329.2174 C341.9075,347.1649 311.908,368.4228 286.5963,386.3589" fill="none" style="stroke:#181818;stroke-width:1;"/><text fill="#000000" font-family="sans-serif" font-size="13" lengthAdjust="spacing" textLength="46.4395" x="336" y="367.5684">queries</text></g><g class="link" data-entity-1="ent0006" data-entity-2="ent0005" data-link-type="extension" id="lnk19"><polygon fill="none" points="249,389.8279,255,371.8279,243,371.8279,249,389.8279" style="stroke:#181818;stroke-width:1;"/><path d="M249,329.2174 C249,347.1649 249,353.8918 249,371.8279" fill="none" style="stroke:#181818;stroke-width:1;stroke-dasharray:7,7;"/></g><g class="link" data-entity-1="ent0007" data-entity-2="ent0005" data-link-type="extension" id="lnk20"><polygon fill="none" points="214.1336,389.8279,202.4634,374.8677,195.8213,384.8619,214.1336,389.8279" style="stroke:#181818;stroke-width:1;"/><path d="M122.9346,329.2174 C149.9397,347.1649 172.1545,361.9287 199.1424,379.8648" fill="none" style="stroke:#181818;stroke-width:1;stroke-dasharray:7,7;"/></g><g class="link" data-entity-1="ent0003" data-entity-2="ent0011" data-link-type="dependency" id="lnk21"><polygon fill="#181818" points="738.357,177.7611,734.3742,168.7534,734.6521,174.4035,729.0021,174.6813,738.357,177.7611" style="stroke:#181818;stroke-width:1;"/><path d="M629.7068,79.2968 C659.5645,106.3553 704.0806,146.6981 733.9111,173.7319" fill="none" style="stroke:#181818;stroke-width:1;"/></g><g class="link" data-entity-1="ent0003" data-entity-2="ent0013" data-link-type="dependency" id="lnk22"><polygon fill="#181818" points="892.056,177.9283,890.0839,168.2789,889.1515,173.8584,883.572,172.9261,892.056,177.9283" style="stroke:#181818;stroke-width:1;"/><path d="M666.0826,64.1839 C715.8855,72.9557 785.9838,90.4261 839,124 C860.8478,137.8357 876.2763,155.8171 888.5706,173.0444" fill="none" style="stroke:#181818;stroke-width:1;"/></g><g class="link" data-entity-1="ent0013" data-entity-2="ent0014" data-link-type="composition" id="lnk23"><polygon fill="#181818" points="906.5412,226.1714,902.4232,232.0911,906.3036,238.1691,910.4216,232.2495,906.5412,226.1714" style="stroke:#181818;stroke-width:1;"/><path d="M906.3036,238.1691 C905.9784,254.5926 905.7814,264.537 905.4567,280.9364" fill="none" style="stroke:#181818;stroke-width:1;"/><text fill="#000000" font-family="sans-serif" font-size="13" lengthAdjust="spacing" textLength="22.7119" x="882.4567" y="277.5047">0..*</text></g><?plantuml-src VP71JiCm38RlUGgJ4qngXJXEKoN43am22UWJcDIqqTAaIvo92NXtkg9fwRfnpFz_TkpVLvt7kaKmk7EH8RJ4Q564jROTUcp1Q4kywmYSvyO9qQ5QOqqWIqAlcljEm_Ns3XXzJNmZuKi0A8CXm1zGajzgHIVgawkrwZLjcVm7AeBL4XdVCHp9W_3Y0jUUmiGeDqRpaPSFg1ggHj_2Oj4Pj9Qgef200Sumep7awZMItmtOf3Znn4yQHOEUglpPLMIc2RpH9bBWYHgYEOfBfs9BbXyrxrkFbyYoujpWC8SO-bpEMVkI9EeUfKzIaV_1qytde8OjqnO3SyY-9_gjlExxdTu9ylmx8SNuNAVkfR4FgLtsX_pI1yoo3EHjdizackSl?></g></svg>