<?plantuml 1.2026.2?><svg xmlns="http://www.w3.org/2000/svg" xmlns:xlink="http://www.w3.org/1999/xlink" contentStyleType="text/css" data-diagram-type="DESCRIPTION" height="1247px" preserveAspectRatio="none" style="width:1292px;height:1247px;background:#FFFFFF;" version="1.1" viewBox="0 0 1292 1247" width="1292px" zoomAndPan="magnify"><defs/><g><!--cluster k8s--><g class="cluster" data-qualified-name="k8s" data-source-line="6" id="ent0003"><polygon fill="none" points="14,135,24,125,1275,125,1275,1220.5,1265,1230.5,14,1230.5,14,135" style="stroke:#181818;stroke-width:1;"/><line style="stroke:#181818;stroke-width:1;" x1="1265" x2="1275" y1="135" y2="125"/><line style="stroke:#181818;stroke-width:1;" x1="14" x2="1265" y1="135" y2="135"/><line style="stroke:#181818;stroke-width:1;" x1="1265" x2="1265" y1="135" y2="1230.5"/><text fill="#000000" font-family="sans-serif" font-size="14" font-weight="bold" lengthAdjust="spacing" textLength="136.1377" x="572.4312" y="151.5352">Kubernetes cluster</text><text fill="#000000" font-family="sans-serif" font-size="14" font-weight="bold" lengthAdjust="spacing" textLength="197.627" x="541.6865" y="168.0234">Minikube / managed target</text></g><!--cluster nsapp--><g class="cluster" data-qualified-name="k8s.nsapp" data-source-line="7" id="ent0004"><rect fill="none" height="963.5" rx="2.5" ry="2.5" style="stroke:#181818;stroke-width:1;" width="812" x="455" y="173"/><path d="M652.8516,173 L652.8516,182.4883 L642.8516,192.4883 L455,192.4883" fill="none" style="stroke:#181818;stroke-width:1;"/><text fill="#000000" font-family="sans-serif" font-size="14" font-weight="bold" lengthAdjust="spacing" textLength="187.8516" x="458" y="187.5352">Namespace: searchproject</text></g><!--cluster nsobs--><g class="cluster" data-qualified-name="k8s.nsobs" data-source-line="27" id="ent0017"><rect fill="none" height="199" rx="2.5" ry="2.5" style="stroke:#181818;stroke-width:1;" width="339" x="108" y="678"/><path d="M301.9277,678 L301.9277,687.4883 L291.9277,697.4883 L108,697.4883" fill="none" style="stroke:#181818;stroke-width:1;"/><text fill="#000000" font-family="sans-serif" font-size="14" font-weight="bold" lengthAdjust="spacing" textLength="183.9277" x="111" y="692.5352">Namespace: observability</text></g><!--entity user--><g class="entity" data-qualified-name="user" data-source-line="4" id="ent0002"><ellipse cx="614.1826" cy="12.5" fill="#F1F1F1" rx="8" ry="8" style="stroke:#181818;stroke-width:0.5;"/><path d="M614.1826,20.5 L614.1826,47.5 M601.1826,28.5 L627.1826,28.5 M614.1826,47.5 L601.1826,62.5 M614.1826,47.5 L627.1826,62.5" fill="none" style="stroke:#181818;stroke-width:0.5;"/><text fill="#000000" font-family="sans-serif" font-size="14" lengthAdjust="spacing" textLength="30.3652" x="599" y="77.5352">User</text></g><!--entity pvga--><g class="entity" data-qualified-name="k8s.pvga" data-source-line="34" id="ent0022"><rect fill="#DCFCE7" height="39.4883" rx="2.5" ry="2.5" style="stroke:#181818;stroke-width:0.5;" width="131.9922" x="774" y="1183.5"/><polygon fill="#DCFCE7" points="888.9922,1188.5,888.9922,1202.5,900.9922,1202.5,900.9922,1194.5,894.9922,1188.5,888.9922,1188.5" style="stroke:#181818;stroke-width:0.5;"/><line style="stroke:#181818;stroke-width:0.5;" x1="894.9922" x2="894.9922" y1="1188.5" y2="1194.5"/><line style="stroke:#181818;stroke-width:0.5;" x1="900.9922" x2="894.9922" y1="1194.5" y2="1194.5"/><text fill="#000000" font-family="sans-serif" font-size="14" lengthAdjust="spacing" textLength="101.9922" x="784" y="1210.0352">PVC pg-a-data</text></g><!--entity pvgb--><g class="entity" data-qualified-name="k8s.pvgb" data-source-line="35" id="ent0023"><rect fill="#FFF3C4" height="39.4883" rx="2.5" ry="2.5" style="stroke:#181818;stroke-width:0.5;" width="206.75" x="1009.5" y="1183.5"/><polygon fill="#FFF3C4" points="1199.25,1188.5,1199.25,1202.5,1211.25,1202.5,1211.25,1194.5,1205.25,1188.5,1199.25,1188.5" style="stroke:#181818;stroke-width:0.5;"/><line style="stroke:#181818;stroke-width:0.5;" x1="1205.25" x2="1205.25" y1="1188.5" y2="1194.5"/><line style="stroke:#181818;stroke-width:0.5;" x1="1211.25" x2="1205.25" y1="1194.5" y2="1194.5"/><text fill="#000000" font-family="sans-serif" font-size="14" lengthAdjust="spacing" textLength="176.75" x="1019.5" y="1210.0352">PVC pg-b-data &#171;planned&#187;</text></g><!--entity pvredis--><g class="entity" data-qualified-name="k8s.pvredis" data-source-line="36" id="ent0024"><rect fill="#FFF3C4" height="39.4883" rx="2.5" ry="2.5" style="stroke:#181818;stroke-width:0.5;" width="205.8203" x="485" y="1183.5"/><polygon fill="#FFF3C4" points="673.8203,1188.5,673.8203,1202.5,685.8203,1202.5,685.8203,1194.5,679.8203,1188.5,673.8203,1188.5" style="stroke:#181818;stroke-width:0.5;"/><line style="stroke:#181818;stroke-width:0.5;" x1="679.8203" x2="679.8203" y1="1188.5" y2="1194.5"/><line style="stroke:#181818;stroke-width:0.5;" x1="685.8203" x2="679.8203" y1="1194.5" y2="1194.5"/><text fill="#000000" font-family="sans-serif" font-size="14" lengthAdjust="spacing" textLength="175.8203" x="495" y="1210.0352">PVC redis-data &#171;planned&#187;</text></g><!--entity ing--><g class="entity" data-qualified-name="k8s.nsapp.ing" data-source-line="8" id="ent0005"><polygon fill="#D8EAFE" points="522.5,210,532.5,200,705.0566,200,705.0566,269.4648,695.0566,279.4648,522.5,279.4648,522.5,210" style="stroke:#181818;stroke-width:0.5;"/><line style="stroke:#181818;stroke-width:0.5;" x1="695.0566" x2="705.0566" y1="210" y2="200"/><line style="stroke:#181818;stroke-width:0.5;" x1="522.5" x2="695.0566" y1="210" y2="210"/><line style="stroke:#181818;stroke-width:0.5;" x1="695.0566" x2="695.0566" y1="210" y2="279.4648"/><text fill="#000000" font-family="sans-serif" font-size="14" lengthAdjust="spacing" textLength="49.2529" x="537.5" y="233.5352">Ingress</text><text fill="#000000" font-family="sans-serif" font-size="14" lengthAdjust="spacing" textLength="142.5566" x="537.5" y="250.0234">search.example.local</text><text fill="#000000" font-family="sans-serif" font-size="14" lengthAdjust="spacing" textLength="23.8574" x="537.5" y="266.5117">TLS</text></g><!--entity svcweb--><g class="entity" data-qualified-name="k8s.nsapp.svcweb" data-source-line="10" id="ent0006"><polygon fill="#D8EAFE" points="527,344,537,334,701.1689,334,701.1689,386.9766,691.1689,396.9766,527,396.9766,527,344" style="stroke:#181818;stroke-width:0.5;"/><line style="stroke:#181818;stroke-width:0.5;" x1="691.1689" x2="701.1689" y1="344" y2="334"/><line style="stroke:#181818;stroke-width:0.5;" x1="527" x2="691.1689" y1="344" y2="344"/><line style="stroke:#181818;stroke-width:0.5;" x1="691.1689" x2="691.1689" y1="344" y2="396.9766"/><text fill="#000000" font-family="sans-serif" font-size="14" lengthAdjust="spacing" textLength="134.1689" x="542" y="367.5352">Service webapp-svc</text><text fill="#000000" font-family="sans-serif" font-size="14" lengthAdjust="spacing" textLength="60.0947" x="542" y="384.0234">ClusterIP</text></g><!--entity depweb--><g class="entity" data-qualified-name="k8s.nsapp.depweb" data-source-line="11" id="ent0007"><polygon fill="#D8EAFE" points="502.5,462,512.5,452,725.792,452,725.792,504.9766,715.792,514.9766,502.5,514.9766,502.5,462" style="stroke:#181818;stroke-width:0.5;"/><line style="stroke:#181818;stroke-width:0.5;" x1="715.792" x2="725.792" y1="462" y2="452"/><line style="stroke:#181818;stroke-width:0.5;" x1="502.5" x2="715.792" y1="462" y2="462"/><line style="stroke:#181818;stroke-width:0.5;" x1="715.792" x2="715.792" y1="462" y2="514.9766"/><text fill="#000000" font-family="sans-serif" font-size="14" lengthAdjust="spacing" textLength="183.292" x="517.5" y="485.5352">Deployment searchwebapp</text><text fill="#000000" font-family="sans-serif" font-size="14" lengthAdjust="spacing" textLength="70.1846" x="517.5" y="502.0234">replicas: 2</text></g><!--entity svclb--><g class="entity" data-qualified-name="k8s.nsapp.svclb" data-source-line="13" id="ent0008"><polygon fill="#D8EAFE" points="524.5,580,534.5,570,703.0303,570,703.0303,622.9766,693.0303,632.9766,524.5,632.9766,524.5,580" style="stroke:#181818;stroke-width:0.5;"/><line style="stroke:#181818;stroke-width:0.5;" x1="693.0303" x2="703.0303" y1="580" y2="570"/><line style="stroke:#181818;stroke-width:0.5;" x1="524.5" x2="693.0303" y1="580" y2="580"/><line style="stroke:#181818;stroke-width:0.5;" x1="693.0303" x2="693.0303" y1="580" y2="632.9766"/><text fill="#000000" font-family="sans-serif" font-size="14" lengthAdjust="spacing" textLength="138.5303" x="539.5" y="603.5352">Service searchlb-svc</text><text fill="#000000" font-family="sans-serif" font-size="14" lengthAdjust="spacing" textLength="60.0947" x="539.5" y="620.0234">ClusterIP</text></g><!--entity deplb--><g class="entity" data-qualified-name="k8s.nsapp.deplb" data-source-line="14" id="ent0009"><polygon fill="#D8EAFE" points="485.5,706.5,495.5,696.5,742.9375,696.5,742.9375,749.4766,732.9375,759.4766,485.5,759.4766,485.5,706.5" style="stroke:#181818;stroke-width:0.5;"/><line style="stroke:#181818;stroke-width:0.5;" x1="732.9375" x2="742.9375" y1="706.5" y2="696.5"/><line style="stroke:#181818;stroke-width:0.5;" x1="485.5" x2="732.9375" y1="706.5" y2="706.5"/><line style="stroke:#181818;stroke-width:0.5;" x1="732.9375" x2="732.9375" y1="706.5" y2="759.4766"/><text fill="#000000" font-family="sans-serif" font-size="14" lengthAdjust="spacing" textLength="217.4375" x="500.5" y="730.0352">Deployment searchloadbalancer</text><text fill="#000000" font-family="sans-serif" font-size="14" lengthAdjust="spacing" textLength="70.1846" x="500.5" y="746.5234">replicas: 2</text></g><!--entity svcapi--><g class="entity" data-qualified-name="k8s.nsapp.svcapi" data-source-line="16" id="ent0010"><polygon fill="#D8EAFE" points="683,824.5,693,814.5,869.2617,814.5,869.2617,867.4766,859.2617,877.4766,683,877.4766,683,824.5" style="stroke:#181818;stroke-width:0.5;"/><line style="stroke:#181818;stroke-width:0.5;" x1="859.2617" x2="869.2617" y1="824.5" y2="814.5"/><line style="stroke:#181818;stroke-width:0.5;" x1="683" x2="859.2617" y1="824.5" y2="824.5"/><line style="stroke:#181818;stroke-width:0.5;" x1="859.2617" x2="859.2617" y1="824.5" y2="877.4766"/><text fill="#000000" font-family="sans-serif" font-size="14" lengthAdjust="spacing" textLength="146.2617" x="698" y="848.0352">Service searchapi-svc</text><text fill="#000000" font-family="sans-serif" font-size="14" lengthAdjust="spacing" textLength="60.0947" x="698" y="864.5234">ClusterIP</text></g><!--entity depapi--><g class="entity" data-qualified-name="k8s.nsapp.depapi" data-source-line="17" id="ent0011"><polygon fill="#D8EAFE" points="492.5,942.5,502.5,932.5,683.6289,932.5,683.6289,985.4766,673.6289,995.4766,492.5,995.4766,492.5,942.5" style="stroke:#181818;stroke-width:0.5;"/><line style="stroke:#181818;stroke-width:0.5;" x1="673.6289" x2="683.6289" y1="942.5" y2="932.5"/><line style="stroke:#181818;stroke-width:0.5;" x1="492.5" x2="673.6289" y1="942.5" y2="942.5"/><line style="stroke:#181818;stroke-width:0.5;" x1="673.6289" x2="673.6289" y1="942.5" y2="995.4766"/><text fill="#000000" font-family="sans-serif" font-size="14" lengthAdjust="spacing" textLength="151.1289" x="507.5" y="966.0352">Deployment searchapi</text><text fill="#000000" font-family="sans-serif" font-size="14" lengthAdjust="spacing" textLength="70.1846" x="507.5" y="982.5234">replicas: 3</text></g><!--entity ssredis--><g class="entity" data-qualified-name="k8s.nsapp.ssredis" data-source-line="19" id="ent0012"><path d="M463,1068.5 C463,1058.5 588.1479,1058.5 588.1479,1058.5 C588.1479,1058.5 713.2959,1058.5 713.2959,1068.5 L713.2959,1110.4766 C713.2959,1120.4766 588.1479,1120.4766 588.1479,1120.4766 C588.1479,1120.4766 463,1120.4766 463,1110.4766 L463,1068.5" fill="#FFF3C4" style="stroke:#181818;stroke-width:0.5;"/><path d="M463,1068.5 C463,1078.5 588.1479,1078.5 588.1479,1078.5 C588.1479,1078.5 713.2959,1078.5 713.2959,1068.5" fill="none" style="stroke:#181818;stroke-width:0.5;"/><text fill="#000000" font-family="sans-serif" font-size="14" lengthAdjust="spacing" textLength="230.2959" x="473" y="1096.0352">StatefulSet redis-cache &#171;planned&#187;</text><text fill="#000000" font-family="sans-serif" font-size="14" lengthAdjust="spacing" textLength="106.5723" x="473" y="1112.5234">PVC: redis-data</text></g><!--entity sspga--><g class="entity" data-qualified-name="k8s.nsapp.sspga" data-source-line="20" id="ent0013"><path d="M731,1060.5 C731,1050.5 839.8203,1050.5 839.8203,1050.5 C839.8203,1050.5 948.6406,1050.5 948.6406,1060.5 L948.6406,1118.9648 C948.6406,1128.9648 839.8203,1128.9648 839.8203,1128.9648 C839.8203,1128.9648 731,1128.9648 731,1118.9648 L731,1060.5" fill="#A7F3D0" style="stroke:#181818;stroke-width:0.5;"/><path d="M731,1060.5 C731,1070.5 839.8203,1070.5 839.8203,1070.5 C839.8203,1070.5 948.6406,1070.5 948.6406,1060.5" fill="none" style="stroke:#181818;stroke-width:0.5;"/><text fill="#000000" font-family="sans-serif" font-size="14" lengthAdjust="spacing" textLength="197.6406" x="741" y="1088.0352">StatefulSet postgres-shard-a</text><text fill="#000000" font-family="sans-serif" font-size="14" lengthAdjust="spacing" textLength="108.8965" x="741" y="1104.5234">primary+replica</text><text fill="#000000" font-family="sans-serif" font-size="14" lengthAdjust="spacing" textLength="106.4219" x="741" y="1121.0117">PVC: pg-a-data</text></g><!--entity sspgb--><g class="entity" data-qualified-name="k8s.nsapp.sspgb" data-source-line="21" id="ent0014"><path d="M967,1060.5 C967,1050.5 1113.1992,1050.5 1113.1992,1050.5 C1113.1992,1050.5 1259.3984,1050.5 1259.3984,1060.5 L1259.3984,1118.9648 C1259.3984,1128.9648 1113.1992,1128.9648 1113.1992,1128.9648 C1113.1992,1128.9648 967,1128.9648 967,1118.9648 L967,1060.5" fill="#FFF3C4" style="stroke:#181818;stroke-width:0.5;"/><path d="M967,1060.5 C967,1070.5 1113.1992,1070.5 1113.1992,1070.5 C1113.1992,1070.5 1259.3984,1070.5 1259.3984,1060.5" fill="none" style="stroke:#181818;stroke-width:0.5;"/><text fill="#000000" font-family="sans-serif" font-size="14" lengthAdjust="spacing" textLength="272.3984" x="977" y="1088.0352">StatefulSet postgres-shard-b &#171;planned&#187;</text><text fill="#000000" font-family="sans-serif" font-size="14" lengthAdjust="spacing" textLength="108.8965" x="977" y="1104.5234">primary+replica</text><text fill="#000000" font-family="sans-serif" font-size="14" lengthAdjust="spacing" textLength="107.502" x="977" y="1121.0117">PVC: pg-b-data</text></g><!--entity cfg--><g class="entity" data-qualified-name="k8s.nsapp.cfg" data-source-line="23" id="ent0015"><rect fill="#E2E8F0" height="55.9766" rx="2.5" ry="2.5" style="stroke:#181818;stroke-width:0.5;" width="179.3105" x="760.5" y="573.5"/><polygon fill="#E2E8F0" points="922.8105,578.5,922.8105,592.5,934.8105,592.5,934.8105,584.5,928.8105,578.5,922.8105,578.5" style="stroke:#181818;stroke-width:0.5;"/><line style="stroke:#181818;stroke-width:0.5;" x1="928.8105" x2="928.8105" y1="578.5" y2="584.5"/><line style="stroke:#181818;stroke-width:0.5;" x1="934.8105" x2="928.8105" y1="584.5" y2="584.5"/><text fill="#000000" font-family="sans-serif" font-size="14" lengthAdjust="spacing" textLength="134.7637" x="770.5" y="600.0352">ConfigMap + Secret</text><text fill="#000000" font-family="sans-serif" font-size="14" lengthAdjust="spacing" textLength="149.3105" x="770.5" y="616.5234">conn strings, flags, ttl</text></g><!--entity hpa--><g class="entity" data-qualified-name="k8s.nsapp.hpa" data-source-line="24" id="ent0016"><rect fill="#FFF3C4" height="55.9766" rx="2.5" ry="2.5" style="stroke:#181818;stroke-width:0.5;" width="200.6387" x="463.5" y="818"/><polygon fill="#FFF3C4" points="647.1387,823,647.1387,837,659.1387,837,659.1387,829,653.1387,823,647.1387,823" style="stroke:#181818;stroke-width:0.5;"/><line style="stroke:#181818;stroke-width:0.5;" x1="653.1387" x2="653.1387" y1="823" y2="829"/><line style="stroke:#181818;stroke-width:0.5;" x1="659.1387" x2="653.1387" y1="829" y2="829"/><text fill="#000000" font-family="sans-serif" font-size="14" lengthAdjust="spacing" textLength="170.6387" x="473.5" y="844.5352">HPA searchapi &#171;planned&#187;</text><text fill="#000000" font-family="sans-serif" font-size="14" lengthAdjust="spacing" textLength="71.2441" x="473.5" y="861.0234">CPU + RPS</text></g><!--entity prom--><g class="entity" data-qualified-name="k8s.nsobs.prom" data-source-line="28" id="ent0018"><polygon fill="#FFF3C4" points="245,833,255,823,439.1641,823,439.1641,859.4883,429.1641,869.4883,245,869.4883,245,833" style="stroke:#181818;stroke-width:0.5;"/><line style="stroke:#181818;stroke-width:0.5;" x1="429.1641" x2="439.1641" y1="833" y2="823"/><line style="stroke:#181818;stroke-width:0.5;" x1="245" x2="429.1641" y1="833" y2="833"/><line style="stroke:#181818;stroke-width:0.5;" x1="429.1641" x2="429.1641" y1="833" y2="869.4883"/><text fill="#000000" font-family="sans-serif" font-size="14" lengthAdjust="spacing" textLength="154.1641" x="260" y="856.5352">Prometheus &#171;planned&#187;</text></g><!--entity grafana--><g class="entity" data-qualified-name="k8s.nsobs.grafana" data-source-line="29" id="ent0019"><polygon fill="#EDE9FE" points="345.5,715,355.5,705,438.376,705,438.376,741.4883,428.376,751.4883,345.5,751.4883,345.5,715" style="stroke:#181818;stroke-width:0.5;"/><line style="stroke:#181818;stroke-width:0.5;" x1="428.376" x2="438.376" y1="715" y2="705"/><line style="stroke:#181818;stroke-width:0.5;" x1="345.5" x2="428.376" y1="715" y2="715"/><line style="stroke:#181818;stroke-width:0.5;" x1="428.376" x2="428.376" y1="715" y2="751.4883"/><text fill="#000000" font-family="sans-serif" font-size="14" lengthAdjust="spacing" textLength="52.876" x="360.5" y="738.5352">Grafana</text></g><!--entity loki--><g class="entity" data-qualified-name="k8s.nsobs.loki" data-source-line="30" id="ent0020"><polygon fill="#EDE9FE" points="159,833,169,823,227.2939,823,227.2939,859.4883,217.2939,869.4883,159,869.4883,159,833" style="stroke:#181818;stroke-width:0.5;"/><line style="stroke:#181818;stroke-width:0.5;" x1="217.2939" x2="227.2939" y1="833" y2="823"/><line style="stroke:#181818;stroke-width:0.5;" x1="159" x2="217.2939" y1="833" y2="833"/><line style="stroke:#181818;stroke-width:0.5;" x1="217.2939" x2="217.2939" y1="833" y2="869.4883"/><text fill="#000000" font-family="sans-serif" font-size="14" lengthAdjust="spacing" textLength="28.2939" x="174" y="856.5352">Loki</text></g><!--entity otel--><g class="entity" data-qualified-name="k8s.nsobs.otel" data-source-line="31" id="ent0021"><polygon fill="#FFF3C4" points="116.5,715,126.5,705,327.0977,705,327.0977,741.4883,317.0977,751.4883,116.5,751.4883,116.5,715" style="stroke:#181818;stroke-width:0.5;"/><line style="stroke:#181818;stroke-width:0.5;" x1="317.0977" x2="327.0977" y1="715" y2="705"/><line style="stroke:#181818;stroke-width:0.5;" x1="116.5" x2="317.0977" y1="715" y2="715"/><line style="stroke:#181818;stroke-width:0.5;" x1="317.0977" x2="317.0977" y1="715" y2="751.4883"/><text fill="#000000" font-family="sans-serif" font-size="14" lengthAdjust="spacing" textLength="170.5977" x="131.5" y="738.5352">OTel Collector &#171;planned&#187;</text></g><g class="link" data-entity-1="ent0002" data-entity-2="ent0005" data-link-type="dependency" id="lnk25"><polygon fill="#181818" points="614,199.734,618,190.734,614,194.734,610,190.734,614,199.734" style="stroke:#181818;stroke-width:1;"/><path d="M614,80.2322 C614,114.4652 614,159.0239 614,193.734" fill="none" style="stroke:#181818;stroke-width:1;"/><text fill="#000000" font-family="sans-serif" font-size="13" lengthAdjust="spacing" textLength="40.1807" x="616" y="112.5684">HTTPS</text></g><g class="link" data-entity-1="ent0005" data-entity-2="ent0006" data-link-type="dependency" id="lnk26"><polygon fill="#181818" points="614,333.8384,618,324.8384,614,328.8384,610,324.8384,614,333.8384" style="stroke:#181818;stroke-width:1;"/><path d="M614,279.0547 C614,296.6861 614,311.2842 614,327.8384" fill="none" style="stroke:#181818;stroke-width:1;"/><text fill="#000000" font-family="sans-serif" font-size="13" lengthAdjust="spacing" textLength="33.4775" x="616" y="311.5684">route</text></g><g class="link" data-entity-1="ent0006" data-entity-2="ent0007" data-link-type="dependency" id="lnk27"><polygon fill="#181818" points="614,451.9773,618,442.9773,614,446.9773,610,442.9773,614,451.9773" style="stroke:#181818;stroke-width:1;"/><path d="M614,397.2813 C614,414.1956 614,429.104 614,445.9773" fill="none" style="stroke:#181818;stroke-width:1;"/><text fill="#000000" font-family="sans-serif" font-size="13" lengthAdjust="spacing" textLength="72.6616" x="616" y="429.5684">target pods</text></g><g class="link" data-entity-1="ent0007" data-entity-2="ent0008" data-link-type="dependency" id="lnk28"><polygon fill="#181818" points="614,569.9773,618,560.9773,614,564.9773,610,560.9773,614,569.9773" style="stroke:#181818;stroke-width:1;"/><path d="M614,515.2813 C614,532.1956 614,547.104 614,563.9773" fill="none" style="stroke:#181818;stroke-width:1;"/><text fill="#000000" font-family="sans-serif" font-size="13" lengthAdjust="spacing" textLength="111.1411" x="616" y="547.5684">HTTP /api/search</text></g><g class="link" data-entity-1="ent0008" data-entity-2="ent0009" data-link-type="dependency" id="lnk29"><polygon fill="#181818" points="614,696.1473,618,687.1473,614,691.1473,610,687.1473,614,696.1473" style="stroke:#181818;stroke-width:1;"/><path d="M614,633.2753 C614,652.4294 614,670.9787 614,690.1473" fill="none" style="stroke:#181818;stroke-width:1;"/><text fill="#000000" font-family="sans-serif" font-size="13" lengthAdjust="spacing" textLength="72.6616" x="616" y="665.5684">target pods</text></g><g class="link" data-entity-1="ent0009" data-entity-2="ent0010" data-link-type="dependency" id="lnk30"><polygon fill="#181818" points="751.241,814.4704,748.238,805.0906,747.9139,810.7381,742.2663,810.414,751.241,814.4704" style="stroke:#181818;stroke-width:1;"/><path d="M683.5476,759.5678 C693.436,765.0015 703.2173,771.0183 712,777.5 C726.2928,788.0482 736.1266,797.5154 747.2484,809.9917" fill="none" style="stroke:#181818;stroke-width:1;"/><text fill="#000000" font-family="sans-serif" font-size="13" lengthAdjust="spacing" textLength="33.1792" x="735" y="792.0684">HTTP</text></g><g class="link" data-entity-1="ent0010" data-entity-2="ent0011" data-link-type="dependency" id="lnk31"><polygon fill="#181818" points="637.4678,932.4773,647.2275,931.1555,641.7229,929.8518,643.0267,924.3472,637.4678,932.4773" style="stroke:#181818;stroke-width:1;"/><path d="M726.113,877.7813 C698.7002,894.6956 669.9204,912.4534 642.574,929.3267" fill="none" style="stroke:#181818;stroke-width:1;"/><text fill="#000000" font-family="sans-serif" font-size="13" lengthAdjust="spacing" textLength="72.6616" x="695" y="910.0684">target pods</text></g><g class="link" data-entity-1="ent0011" data-entity-2="ent0012" data-link-type="dependency" id="lnk32"><polygon fill="#181818" points="588,1058.3231,592,1049.3231,588,1053.3231,584,1049.3231,588,1058.3231" style="stroke:#181818;stroke-width:1;"/><path d="M588,995.5281 C588,1014.6712 588,1033.2469 588,1052.3231" fill="none" style="stroke:#181818;stroke-width:1;"/><text fill="#000000" font-family="sans-serif" font-size="13" lengthAdjust="spacing" textLength="61.3945" x="590" y="1028.0684">TCP 6379</text></g><g class="link" data-entity-1="ent0011" data-entity-2="ent0013" data-link-type="dependency" id="lnk33"><polygon fill="#181818" points="762.185,1050.3645,755.8636,1042.812,757.6952,1048.1641,752.343,1049.9957,762.185,1050.3645" style="stroke:#181818;stroke-width:1;"/><path d="M650.2922,995.5281 C684.1063,1012.0997 720.8399,1030.1021 756.7972,1047.724" fill="none" style="stroke:#181818;stroke-width:1;"/><text fill="#000000" font-family="sans-serif" font-size="13" lengthAdjust="spacing" textLength="76.6035" x="723" y="1028.0684">SQL shard A</text></g><g class="link" data-entity-1="ent0011" data-entity-2="ent0014" data-link-type="dependency" id="lnk34"><polygon fill="#181818" points="966.9705,1052.6857,959.1741,1046.6678,962.1128,1051.5014,957.2792,1054.4401,966.9705,1052.6857" style="stroke:#181818;stroke-width:1;"/><path d="M683.6852,986.0097 C721.5064,994.4124 765.3331,1004.2716 805,1013.5 C873.1404,1029.3527 890.0259,1033.9487 958,1050.5 C960.9612,1051.221 958.1249,1050.5291 961.1413,1051.2645" fill="none" style="stroke:#181818;stroke-width:1;"/><text fill="#000000" font-family="sans-serif" font-size="13" lengthAdjust="spacing" textLength="138.3599" x="886" y="1028.0684">SQL shard B (planned)</text></g><g class="link" data-entity-1="ent0015" data-entity-2="ent0011" data-link-type="dependency" id="lnk35"><polygon fill="#181818" points="683.5338,947.8315,693.1188,950.0962,688.4474,946.9058,691.6377,942.2345,683.5338,947.8315" style="stroke:#181818;stroke-width:1;"/><path d="M863.5968,629.706 C887.9753,682.7663 931.7912,801.5119 878,877.5 C855.1787,909.7386 764.8581,932.511 689.4301,946.7207" fill="none" style="stroke:#181818;stroke-width:1;"/><text fill="#000000" font-family="sans-serif" font-size="13" lengthAdjust="spacing" textLength="102.4956" x="905" y="792.0684">config + secrets</text></g><g class="link" data-entity-1="ent0015" data-entity-2="ent0009" data-link-type="dependency" id="lnk36"><polygon fill="#181818" points="672.1644,696.3158,681.991,695.6543,676.5867,693.9828,678.2582,688.5786,672.1644,696.3158" style="stroke:#181818;stroke-width:1;"/><path d="M798.7915,629.5146 C761.511,649.1817 716.2749,673.0457 677.4712,693.5163" fill="none" style="stroke:#181818;stroke-width:1;"/><text fill="#000000" font-family="sans-serif" font-size="13" lengthAdjust="spacing" textLength="102.4956" x="755" y="665.5684">config + secrets</text></g><g class="link" data-entity-1="ent0016" data-entity-2="ent0011" data-link-type="dependency" id="lnk37"><polygon fill="#181818" points="581.6467,932.2923,583.7403,922.6685,580.6337,927.396,575.9062,924.2894,581.6467,932.2923" style="stroke:#181818;stroke-width:1;"/><path d="M569.6269,874.1968 C573.2292,891.6078 576.6952,908.3601 580.4311,926.4167" fill="none" style="stroke:#181818;stroke-width:1;"/><text fill="#000000" font-family="sans-serif" font-size="13" lengthAdjust="spacing" textLength="73.1504" x="580" y="910.0684">scale target</text></g><g class="link" data-entity-1="ent0018" data-entity-2="ent0011" data-link-type="dependency" id="lnk38"><polygon fill="#181818" points="492.4015,947.9477,484.6383,941.887,487.5504,946.7367,482.7007,949.6489,492.4015,947.9477" style="stroke:#181818;stroke-width:1;"/><path d="M357.7934,869.224 C369.4937,884.1176 386.7036,903.0321 406,914.5 C432.1426,930.0366 457.4888,939.2324 486.5801,946.4945" fill="none" style="stroke:#181818;stroke-width:1;"/><text fill="#000000" font-family="sans-serif" font-size="13" lengthAdjust="spacing" textLength="161.9922" x="408" y="910.0684">scrape /metrics (planned)</text></g><g class="link" data-entity-1="ent0018" data-entity-2="ent0009" data-link-type="dependency" id="lnk39"><polygon fill="#181818" points="571.1033,759.5651,561.3889,761.1866,566.9309,762.3203,565.7972,767.8624,571.1033,759.5651" style="stroke:#181818;stroke-width:1;"/><path d="M420.236,822.8901 C458.2406,811.962 497.5396,800.3094 506,796.5 C528.48,786.3782 546.8587,775.5749 566.0965,762.8713" fill="none" style="stroke:#181818;stroke-width:1;"/><text fill="#000000" font-family="sans-serif" font-size="13" lengthAdjust="spacing" textLength="161.9922" x="543" y="792.0684">scrape /metrics (planned)</text></g><g class="link" data-entity-1="ent0019" data-entity-2="ent0018" data-link-type="dependency" id="lnk40"><polygon fill="#181818" points="313.1332,822.9039,309.4601,813.7656,309.545,819.4218,303.8888,819.5066,313.1332,822.9039" style="stroke:#181818;stroke-width:1;"/><path d="M352.0724,751.1013 C346.6944,753.9739 341.2298,756.8398 336,759.5 C319.3432,767.9726 307.9933,761.7086 298,777.5 C288.3503,792.7485 295.2924,805.5906 308.8273,818.7254" fill="none" style="stroke:#181818;stroke-width:1;"/><text fill="#000000" font-family="sans-serif" font-size="13" lengthAdjust="spacing" textLength="149.5698" x="300" y="792.0684">query metrics (planned)</text></g><g class="link" data-entity-1="ent0019" data-entity-2="ent0020" data-link-type="dependency" id="lnk41"><polygon fill="#181818" points="196.4372,822.7455,202.3831,814.894,197.5768,817.8771,194.5937,813.0707,196.4372,822.7455" style="stroke:#181818;stroke-width:1;"/><path d="M355.7675,751.0479 C349.3505,754.2751 342.605,757.2598 336,759.5 C287.0078,776.1165 261.6644,745.5195 221,777.5 C207.0386,788.4799 201.3409,801.7959 197.8047,816.9034" fill="none" style="stroke:#181818;stroke-width:1;"/><text fill="#000000" font-family="sans-serif" font-size="13" lengthAdjust="spacing" textLength="66.1934" x="223" y="792.0684">query logs</text></g><g class="link" data-entity-1="ent0011" data-entity-2="ent0020" data-link-type="dependency" id="lnk42"><polygon fill="#181818" points="221.8762,869.2151,227.2008,877.5006,226.0547,871.961,231.5943,870.815,221.8762,869.2151" style="stroke:#181818;stroke-width:1;"/><path d="M492.3776,951.8587 C419.1488,940.5261 317.2419,918.5645 236,877.5 C231.2624,875.1053 231.4784,875.5252 226.8904,872.5102" fill="none" style="stroke:#181818;stroke-width:1;"/><text fill="#000000" font-family="sans-serif" font-size="13" lengthAdjust="spacing" textLength="26.4761" x="330" y="910.0684">logs</text></g><g class="link" data-entity-1="ent0009" data-entity-2="ent0020" data-link-type="dependency" id="lnk43"><polygon fill="#181818" points="219.5237,822.9634,229.2538,821.4384,223.7232,820.2497,224.9119,814.7192,219.5237,822.9634" style="stroke:#181818;stroke-width:1;"/><path d="M509.2076,759.623 C496.3402,764.873 483.638,770.8251 472,777.5 C460.793,783.9278 461.909,791.4911 450,796.5 C362.0184,833.5049 325.6463,781.733 236,814.5 C230.3264,816.5738 229.7596,816.3491 224.5631,819.707" fill="none" style="stroke:#181818;stroke-width:1;"/><text fill="#000000" font-family="sans-serif" font-size="13" lengthAdjust="spacing" textLength="26.4761" x="474" y="792.0684">logs</text></g><g class="link" data-entity-1="ent0011" data-entity-2="ent0021" data-link-type="dependency" id="lnk44"><polygon fill="#181818" points="134.0827,751.05,124.2422,750.6447,129.434,752.891,127.1877,758.0827,134.0827,751.05" style="stroke:#181818;stroke-width:1;"/><path d="M492.3561,962.1444 C353.0446,958.636 104.7935,943.0776 49,877.5 C30.8559,856.1741 34.2244,838.284 49,814.5 C68.0053,783.9076 95.9765,766.1406 128.5042,753.2592" fill="none" style="stroke:#181818;stroke-width:1;"/><text fill="#000000" font-family="sans-serif" font-size="13" lengthAdjust="spacing" textLength="97.4556" x="51" y="851.0684">optional export</text></g><g class="link" data-entity-1="ent0013" data-entity-2="ent0022" data-link-type="dependency" id="lnk45"><polygon fill="#181818" points="840,1183.4834,844,1174.4834,840,1178.4834,836,1174.4834,840,1183.4834" style="stroke:#181818;stroke-width:1;"/><path d="M840,1128.5601 C840,1147.1078 840,1162.5697 840,1177.4834" fill="none" style="stroke:#181818;stroke-width:1;"/><text fill="#000000" font-family="sans-serif" font-size="13" lengthAdjust="spacing" textLength="41.1201" x="842" y="1161.0684">mount</text></g><g class="link" data-entity-1="ent0014" data-entity-2="ent0023" data-link-type="dependency" id="lnk46"><polygon fill="#181818" points="1113,1183.4834,1117,1174.4834,1113,1178.4834,1109,1174.4834,1113,1183.4834" style="stroke:#181818;stroke-width:1;"/><path d="M1113,1128.5601 C1113,1147.1078 1113,1162.5697 1113,1177.4834" fill="none" style="stroke:#181818;stroke-width:1;"/><text fill="#000000" font-family="sans-serif" font-size="13" lengthAdjust="spacing" textLength="41.1201" x="1115" y="1161.0684">mount</text></g><g class="link" data-entity-1="ent0012" data-entity-2="ent0024" data-link-type="dependency" id="lnk47"><polygon fill="#181818" points="588,1183.3482,592,1174.3482,588,1178.3482,584,1174.3482,588,1183.3482" style="stroke:#181818;stroke-width:1;"/><path d="M588,1120.6735 C588,1140.6668 588,1160.2631 588,1177.3482" fill="none" style="stroke:#181818;stroke-width:1;"/><text fill="#000000" font-family="sans-serif" font-size="13" lengthAdjust="spacing" textLength="41.1201" x="590" y="1161.0684">mount</text></g><?plantuml-src ZLLHSzis37xNhy2Ib-qwDxrcrwI-NkuosLvxIpTlTlVa5qY2PIuKoP6qLz-k_tqGIIMIwlJoOai0lWyWWG_wpbYi6mI9Hxttu1hog31pzq8PjDY058hyqH1ewtSwox3qsi8dHnRGmPx_iqpfYk3irtr1beF9GIdtpfFTg8z2YNksmmKqp5jJ1HvjJVwiHTzVE_Wl0zXo8YRuZN-TmPAcu0XjkJDM_qrbZ5KEZGdH037V1rLRScwZOl1B-eoDaVHIwXBbHgtlLW4eL0tdi-lvxMAUzT0hiWTH4lnB1HDFtA7Sg3oM_M4PW6nYvmFs4JeZ8_Mn8ULJdP5ZeomxH8bk2gy3GqMcpt0YUyJBuedyybdffSQgG8cgRA_yH17o6JMW4KyKmPxdLC5X_UINNV8-FE0hz5YWQolmw6cxboloOAaIRb9YkIDuzyxmQHHLDpSRjVmhdoPlYunLkM20yyLYSPd_z0rQevrlnsJYTcYh2MwKiQ91UtoHIaq9J3t1Fh-f4SvlhnQNirVFPo-6bJ-PgHXcAXxE4LAXzMBBCeEpNAkjg3-YWHUmejAItwXIAmNEMnvhzoDi9RP_til0LcvvrkUlvzUBLoEgzylRnpuDoyoNdvZ_psMKoyvWxrg_P2VbgGlM_G4B8OK_9dcoRI3FfTMyJ7QqT_rq8PXrtGnw5n6_MDpoaWWXTNpcqypcRmU3TwVlHGYH_732__kQ9EHQIWgRQfnRUtQF3lXuJToXqIYOGpi9itoHpwzEXSPUVdt4Gw-jOzZZD9_03IURwsjtB4mcDs6JJU7zUhrSPUrpQqjBYXN2wvkozDfwqlAPfeNBirgvB1aJKXQ93ovuAYxYV6JHaIZa2GRvGD3EKcJ8qbk2HSS8r_axzKvXdI_XpUNLsw6trTuKLd_SGP0Lt8xTnS3zCtoVxl27h1N0e8GoI8ZdsmNzk7v4EDjN0Qq01XIEFoUKpfA5qHsvBVBdyOA7tOhIzOhfnuPSJuTsuzv61zWK_jcJFSAtGuC4kb2fwy4r9sTdJbqRMRlW80iMjl52AvH0dmr_yBFOZ53L8NIbqNiLpKLdBdhcsDZew9eSVFy3?></g></svg>