<?plantuml 1.2026.2?><svg xmlns="http://www.w3.org/2000/svg" xmlns:xlink="http://www.w3.org/1999/xlink" contentStyleType="text/css" data-diagram-type="DESCRIPTION" height="770px" preserveAspectRatio="none" style="width:1408px;height:770px;background:#FFFFFF;" version="1.1" viewBox="0 0 1408 770" width="1408px" zoomAndPan="magnify"><defs/><g><!--cluster client--><g class="cluster" data-qualified-name="client" data-source-line="4" id="ent0002"><polygon fill="none" points="14,42,24,32,226,32,226,101,216,111,14,111,14,42" style="stroke:#181818;stroke-width:1;"/><line style="stroke:#181818;stroke-width:1;" x1="216" x2="226" y1="42" y2="32"/><line style="stroke:#181818;stroke-width:1;" x1="14" x2="216" y1="42" y2="42"/><line style="stroke:#181818;stroke-width:1;" x1="216" x2="216" y1="42" y2="111"/><text fill="#000000" font-family="sans-serif" font-size="14" font-weight="bold" lengthAdjust="spacing" textLength="82.3799" x="74.8101" y="58.5352">Client node</text></g><!--cluster host--><g class="cluster" data-qualified-name="host" data-source-line="8" id="ent0004"><polygon fill="none" points="234,14,244,4,1391,4,1391,743,1381,753,234,753,234,14" style="stroke:#181818;stroke-width:1;"/><line style="stroke:#181818;stroke-width:1;" x1="1381" x2="1391" y1="14" y2="4"/><line style="stroke:#181818;stroke-width:1;" x1="234" x2="1381" y1="14" y2="14"/><line style="stroke:#181818;stroke-width:1;" x1="1381" x2="1381" y1="14" y2="753"/><text fill="#000000" font-family="sans-serif" font-size="14" font-weight="bold" lengthAdjust="spacing" textLength="87.2607" x="764.8696" y="30.5352">Docker host</text><text fill="#000000" font-family="sans-serif" font-size="14" font-weight="bold" lengthAdjust="spacing" textLength="226.0576" x="695.4712" y="47.0234">(compose network: search-net)</text></g><!--entity clientapp--><g class="entity" data-qualified-name="client.clientapp" data-source-line="5" id="ent0003"><rect fill="#F1F1F1" height="39.4883" rx="2.5" ry="2.5" style="stroke:#181818;stroke-width:0.5;" width="196.0107" x="22" y="64"/><polygon fill="#F1F1F1" points="201.0107,69,201.0107,83,213.0107,83,213.0107,75,207.0107,69,201.0107,69" style="stroke:#181818;stroke-width:0.5;"/><line style="stroke:#181818;stroke-width:0.5;" x1="207.0107" x2="207.0107" y1="69" y2="75"/><line style="stroke:#181818;stroke-width:0.5;" x1="213.0107" x2="207.0107" y1="75" y2="75"/><text fill="#000000" font-family="sans-serif" font-size="14" lengthAdjust="spacing" textLength="166.0107" x="32" y="90.5352">Browser / Console client</text></g><!--entity web--><g class="entity" data-qualified-name="host.web" data-source-line="9" id="ent0005"><polygon fill="#D8EAFE" points="242.5,180,252.5,170,433.2666,170,433.2666,239.4648,423.2666,249.4648,242.5,249.4648,242.5,180" style="stroke:#181818;stroke-width:0.5;"/><line style="stroke:#181818;stroke-width:0.5;" x1="423.2666" x2="433.2666" y1="180" y2="170"/><line style="stroke:#181818;stroke-width:0.5;" x1="242.5" x2="423.2666" y1="180" y2="180"/><line style="stroke:#181818;stroke-width:0.5;" x1="423.2666" x2="423.2666" y1="180" y2="249.4648"/><text fill="#000000" font-family="sans-serif" font-size="14" lengthAdjust="spacing" textLength="97.0088" x="257.5" y="203.5352">searchwebapp</text><text fill="#000000" font-family="sans-serif" font-size="14" lengthAdjust="spacing" textLength="150.7666" x="257.5" y="220.0234">image: SearchWebApp</text><text fill="#000000" font-family="sans-serif" font-size="14" lengthAdjust="spacing" textLength="90.0498" x="257.5" y="236.5117">5249-&gt;8080</text></g><!--entity lb--><g class="entity" data-qualified-name="host.lb" data-source-line="10" id="ent0006"><polygon fill="#D8EAFE" points="389,314,399,304,613.4541,304,613.4541,373.4648,603.4541,383.4648,389,383.4648,389,314" style="stroke:#181818;stroke-width:0.5;"/><line style="stroke:#181818;stroke-width:0.5;" x1="603.4541" x2="613.4541" y1="314" y2="304"/><line style="stroke:#181818;stroke-width:0.5;" x1="389" x2="603.4541" y1="314" y2="314"/><line style="stroke:#181818;stroke-width:0.5;" x1="603.4541" x2="603.4541" y1="314" y2="383.4648"/><text fill="#000000" font-family="sans-serif" font-size="14" lengthAdjust="spacing" textLength="131.1543" x="404" y="337.5352">searchloadbalancer</text><text fill="#000000" font-family="sans-serif" font-size="14" lengthAdjust="spacing" textLength="184.4541" x="404" y="354.0234">image: SearchLoadBalancer</text><text fill="#000000" font-family="sans-serif" font-size="14" lengthAdjust="spacing" textLength="90.0498" x="404" y="370.5117">5075-&gt;8080</text></g><!--entity api1--><g class="entity" data-qualified-name="host.api1" data-source-line="11" id="ent0007"><polygon fill="#D8EAFE" points="800.5,448,810.5,438,957.9141,438,957.9141,507.4648,947.9141,517.4648,800.5,517.4648,800.5,448" style="stroke:#181818;stroke-width:0.5;"/><line style="stroke:#181818;stroke-width:0.5;" x1="947.9141" x2="957.9141" y1="448" y2="438"/><line style="stroke:#181818;stroke-width:0.5;" x1="800.5" x2="947.9141" y1="448" y2="448"/><line style="stroke:#181818;stroke-width:0.5;" x1="947.9141" x2="947.9141" y1="448" y2="517.4648"/><text fill="#000000" font-family="sans-serif" font-size="14" lengthAdjust="spacing" textLength="73.6982" x="815.5" y="471.5352">searchapi1</text><text fill="#000000" font-family="sans-serif" font-size="14" lengthAdjust="spacing" textLength="117.4141" x="815.5" y="488.0234">image: SearchApi</text><text fill="#000000" font-family="sans-serif" font-size="14" lengthAdjust="spacing" textLength="90.0498" x="815.5" y="504.5117">5017-&gt;8080</text></g><!--entity api2--><g class="entity" data-qualified-name="host.api2" data-source-line="12" id="ent0008"><polygon fill="#D8EAFE" points="425.5,448,435.5,438,582.9141,438,582.9141,507.4648,572.9141,517.4648,425.5,517.4648,425.5,448" style="stroke:#181818;stroke-width:0.5;"/><line style="stroke:#181818;stroke-width:0.5;" x1="572.9141" x2="582.9141" y1="448" y2="438"/><line style="stroke:#181818;stroke-width:0.5;" x1="425.5" x2="572.9141" y1="448" y2="448"/><line style="stroke:#181818;stroke-width:0.5;" x1="572.9141" x2="572.9141" y1="448" y2="517.4648"/><text fill="#000000" font-family="sans-serif" font-size="14" lengthAdjust="spacing" textLength="73.6982" x="440.5" y="471.5352">searchapi2</text><text fill="#000000" font-family="sans-serif" font-size="14" lengthAdjust="spacing" textLength="117.4141" x="440.5" y="488.0234">image: SearchApi</text><text fill="#000000" font-family="sans-serif" font-size="14" lengthAdjust="spacing" textLength="90.0498" x="440.5" y="504.5117">5018-&gt;8080</text></g><!--entity redis--><g class="entity" data-qualified-name="host.redis" data-source-line="14" id="ent0009"><polygon fill="#FFF3C4" points="1161,582,1171,572,1354.8633,572,1354.8633,641.4648,1344.8633,651.4648,1161,651.4648,1161,582" style="stroke:#181818;stroke-width:0.5;"/><line style="stroke:#181818;stroke-width:0.5;" x1="1344.8633" x2="1354.8633" y1="582" y2="572"/><line style="stroke:#181818;stroke-width:0.5;" x1="1161" x2="1344.8633" y1="582" y2="582"/><line style="stroke:#181818;stroke-width:0.5;" x1="1344.8633" x2="1344.8633" y1="582" y2="651.4648"/><text fill="#000000" font-family="sans-serif" font-size="14" lengthAdjust="spacing" textLength="153.8633" x="1176" y="605.5352">redis-cache &#171;planned&#187;</text><text fill="#000000" font-family="sans-serif" font-size="14" lengthAdjust="spacing" textLength="97.043" x="1176" y="622.0234">image: redis:7</text><text fill="#000000" font-family="sans-serif" font-size="14" lengthAdjust="spacing" textLength="72.6455" x="1176" y="638.5117">port: 6379</text></g><!--entity pga--><g class="entity" data-qualified-name="host.pga" data-source-line="16" id="ent0010"><path d="M701.5,582.5 C701.5,572.5 766.0234,572.5 766.0234,572.5 C766.0234,572.5 830.5469,572.5 830.5469,582.5 L830.5469,640.9648 C830.5469,650.9648 766.0234,650.9648 766.0234,650.9648 C766.0234,650.9648 701.5,650.9648 701.5,640.9648 L701.5,582.5" fill="#A7F3D0" style="stroke:#181818;stroke-width:0.5;"/><path d="M701.5,582.5 C701.5,592.5 766.0234,592.5 766.0234,592.5 C766.0234,592.5 830.5469,592.5 830.5469,582.5" fill="none" style="stroke:#181818;stroke-width:0.5;"/><text fill="#000000" font-family="sans-serif" font-size="14" lengthAdjust="spacing" textLength="75.0107" x="711.5" y="610.0352">postgres-a</text><text fill="#000000" font-family="sans-serif" font-size="14" lengthAdjust="spacing" textLength="109.0469" x="711.5" y="626.5234">primary shard A</text><text fill="#000000" font-family="sans-serif" font-size="14" lengthAdjust="spacing" textLength="72.6455" x="711.5" y="643.0117">port: 5432</text></g><!--entity pgb--><g class="entity" data-qualified-name="host.pgb" data-source-line="17" id="ent0011"><path d="M950,582.5 C950,572.5 1034.8843,572.5 1034.8843,572.5 C1034.8843,572.5 1119.7686,572.5 1119.7686,582.5 L1119.7686,640.9648 C1119.7686,650.9648 1034.8843,650.9648 1034.8843,650.9648 C1034.8843,650.9648 950,650.9648 950,640.9648 L950,582.5" fill="#FFF3C4" style="stroke:#181818;stroke-width:0.5;"/><path d="M950,582.5 C950,592.5 1034.8843,592.5 1034.8843,592.5 C1034.8843,592.5 1119.7686,592.5 1119.7686,582.5" fill="none" style="stroke:#181818;stroke-width:0.5;"/><text fill="#000000" font-family="sans-serif" font-size="14" lengthAdjust="spacing" textLength="149.7686" x="960" y="610.0352">postgres-b &#171;planned&#187;</text><text fill="#000000" font-family="sans-serif" font-size="14" lengthAdjust="spacing" textLength="50.5791" x="960" y="626.5234">shard B</text><text fill="#000000" font-family="sans-serif" font-size="14" lengthAdjust="spacing" textLength="129.042" x="960" y="643.0117">port: 5433 internal</text></g><!--entity loki--><g class="entity" data-qualified-name="host.loki" data-source-line="19" id="ent0012"><polygon fill="#EDE9FE" points="242.5,590,252.5,580,355.1455,580,355.1455,632.9766,345.1455,642.9766,242.5,642.9766,242.5,590" style="stroke:#181818;stroke-width:0.5;"/><line style="stroke:#181818;stroke-width:0.5;" x1="345.1455" x2="355.1455" y1="590" y2="580"/><line style="stroke:#181818;stroke-width:0.5;" x1="242.5" x2="345.1455" y1="590" y2="590"/><line style="stroke:#181818;stroke-width:0.5;" x1="345.1455" x2="345.1455" y1="590" y2="642.9766"/><text fill="#000000" font-family="sans-serif" font-size="14" lengthAdjust="spacing" textLength="24.876" x="257.5" y="613.5352">loki</text><text fill="#000000" font-family="sans-serif" font-size="14" lengthAdjust="spacing" textLength="72.6455" x="257.5" y="630.0234">port: 3100</text></g><!--entity grafana--><g class="entity" data-qualified-name="host.grafana" data-source-line="20" id="ent0013"><polygon fill="#EDE9FE" points="591.5,62,601.5,52,704.1455,52,704.1455,104.9766,694.1455,114.9766,591.5,114.9766,591.5,62" style="stroke:#181818;stroke-width:0.5;"/><line style="stroke:#181818;stroke-width:0.5;" x1="694.1455" x2="704.1455" y1="62" y2="52"/><line style="stroke:#181818;stroke-width:0.5;" x1="591.5" x2="694.1455" y1="62" y2="62"/><line style="stroke:#181818;stroke-width:0.5;" x1="694.1455" x2="694.1455" y1="62" y2="114.9766"/><text fill="#000000" font-family="sans-serif" font-size="14" lengthAdjust="spacing" textLength="51.4883" x="606.5" y="85.5352">grafana</text><text fill="#000000" font-family="sans-serif" font-size="14" lengthAdjust="spacing" textLength="72.6455" x="606.5" y="102.0234">port: 3000</text></g><!--entity prom--><g class="entity" data-qualified-name="host.prom" data-source-line="21" id="ent0014"><polygon fill="#FFF3C4" points="667.5,188,677.5,178,862.7373,178,862.7373,230.9766,852.7373,240.9766,667.5,240.9766,667.5,188" style="stroke:#181818;stroke-width:0.5;"/><line style="stroke:#181818;stroke-width:0.5;" x1="852.7373" x2="862.7373" y1="188" y2="178"/><line style="stroke:#181818;stroke-width:0.5;" x1="667.5" x2="852.7373" y1="188" y2="188"/><line style="stroke:#181818;stroke-width:0.5;" x1="852.7373" x2="852.7373" y1="188" y2="240.9766"/><text fill="#000000" font-family="sans-serif" font-size="14" lengthAdjust="spacing" textLength="155.2373" x="682.5" y="211.5352">prometheus &#171;planned&#187;</text><text fill="#000000" font-family="sans-serif" font-size="14" lengthAdjust="spacing" textLength="72.6455" x="682.5" y="228.0234">port: 9090</text></g><!--entity otel--><g class="entity" data-qualified-name="host.otel" data-source-line="22" id="ent0015"><polygon fill="#FFF3C4" points="431,598.5,441,588.5,636.8604,588.5,636.8604,624.9883,626.8604,634.9883,431,634.9883,431,598.5" style="stroke:#181818;stroke-width:0.5;"/><line style="stroke:#181818;stroke-width:0.5;" x1="626.8604" x2="636.8604" y1="598.5" y2="588.5"/><line style="stroke:#181818;stroke-width:0.5;" x1="431" x2="626.8604" y1="598.5" y2="598.5"/><line style="stroke:#181818;stroke-width:0.5;" x1="626.8604" x2="626.8604" y1="598.5" y2="634.9883"/><text fill="#000000" font-family="sans-serif" font-size="14" lengthAdjust="spacing" textLength="165.8604" x="446" y="622.0352">otel-collector &#171;planned&#187;</text></g><!--entity vga--><g class="entity" data-qualified-name="host.vga" data-source-line="24" id="ent0016"><rect fill="#DCFCE7" height="39.4883" rx="2.5" ry="2.5" style="stroke:#181818;stroke-width:0.5;" width="200.9326" x="665.5" y="706"/><polygon fill="#DCFCE7" points="849.4326,711,849.4326,725,861.4326,725,861.4326,717,855.4326,711,849.4326,711" style="stroke:#181818;stroke-width:0.5;"/><line style="stroke:#181818;stroke-width:0.5;" x1="855.4326" x2="855.4326" y1="711" y2="717"/><line style="stroke:#181818;stroke-width:0.5;" x1="861.4326" x2="855.4326" y1="717" y2="717"/><text fill="#000000" font-family="sans-serif" font-size="14" lengthAdjust="spacing" textLength="170.9326" x="675.5" y="732.5352">volume: postgres-data-a</text></g><!--entity vgb--><g class="entity" data-qualified-name="host.vgb" data-source-line="25" id="ent0017"><rect fill="#FFF3C4" height="39.4883" rx="2.5" ry="2.5" style="stroke:#181818;stroke-width:0.5;" width="275.6904" x="897" y="706"/><polygon fill="#FFF3C4" points="1155.6904,711,1155.6904,725,1167.6904,725,1167.6904,717,1161.6904,711,1155.6904,711" style="stroke:#181818;stroke-width:0.5;"/><line style="stroke:#181818;stroke-width:0.5;" x1="1161.6904" x2="1161.6904" y1="711" y2="717"/><line style="stroke:#181818;stroke-width:0.5;" x1="1167.6904" x2="1161.6904" y1="717" y2="717"/><text fill="#000000" font-family="sans-serif" font-size="14" lengthAdjust="spacing" textLength="245.6904" x="907" y="732.5352">volume: postgres-data-b &#171;planned&#187;</text></g><!--entity vgr--><g class="entity" data-qualified-name="host.vgr" data-source-line="26" id="ent0018"><rect fill="#DDD6FE" height="39.4883" rx="2.5" ry="2.5" style="stroke:#181818;stroke-width:0.5;" width="177.4102" x="451.5" y="190"/><polygon fill="#DDD6FE" points="611.9102,195,611.9102,209,623.9102,209,623.9102,201,617.9102,195,611.9102,195" style="stroke:#181818;stroke-width:0.5;"/><line style="stroke:#181818;stroke-width:0.5;" x1="617.9102" x2="617.9102" y1="195" y2="201"/><line style="stroke:#181818;stroke-width:0.5;" x1="623.9102" x2="617.9102" y1="201" y2="201"/><text fill="#000000" font-family="sans-serif" font-size="14" lengthAdjust="spacing" textLength="147.4102" x="461.5" y="216.5352">volume: grafana-data</text></g><g class="link" data-entity-1="ent0003" data-entity-2="ent0005" data-link-type="dependency" id="lnk19"><polygon fill="#181818" points="269.9341,169.7836,264.0888,161.857,265.588,167.3115,260.1335,168.8107,269.9341,169.7836" style="stroke:#181818;stroke-width:1;"/><path d="M152.6368,103.0641 C183.5193,120.6302 225.6217,144.5784 264.7188,166.8171" fill="none" style="stroke:#181818;stroke-width:1;"/><text fill="#000000" font-family="sans-serif" font-size="13" lengthAdjust="spacing" textLength="77.1748" x="238" y="147.5684">HTTPS 5249</text></g><g class="link" data-entity-1="ent0005" data-entity-2="ent0006" data-link-type="dependency" id="lnk20"><polygon fill="#181818" points="388.8544,303.9339,383.5698,295.6229,384.6892,301.1679,379.1442,302.2873,388.8544,303.9339" style="stroke:#181818;stroke-width:1;"/><path d="M346.3012,249.2013 C350.6713,262.1852 357.2329,275.9123 367,286 C373.4979,292.7112 375.9184,295.3435 383.8561,300.6147" fill="none" style="stroke:#181818;stroke-width:1;"/><text fill="#000000" font-family="sans-serif" font-size="13" lengthAdjust="spacing" textLength="111.1411" x="369" y="281.5684">HTTP /api/search</text></g><g class="link" data-entity-1="ent0006" data-entity-2="ent0007" data-link-type="dependency" id="lnk21"><polygon fill="#181818" points="800.3446,449.033,793.1665,442.2895,795.6241,447.3846,790.529,449.8423,800.3446,449.033" style="stroke:#181818;stroke-width:1;"/><path d="M611.3494,383.0347 C671.9294,404.1896 739.9662,427.9485 794.68,447.0549" fill="none" style="stroke:#181818;stroke-width:1;"/><text fill="#000000" font-family="sans-serif" font-size="13" lengthAdjust="spacing" textLength="70.1733" x="715" y="415.5684">HTTP 8080</text></g><g class="link" data-entity-1="ent0006" data-entity-2="ent0008" data-link-type="dependency" id="lnk22"><polygon fill="#181818" points="502.5198,437.9046,506.2221,428.7781,502.3556,432.9073,498.2264,429.0408,502.5198,437.9046" style="stroke:#181818;stroke-width:1;"/><path d="M501.3493,383.3 C501.4998,395.0873 501.71,408.0745 502,420 C502.1408,425.7892 502.1259,425.9143 502.3228,431.9079" fill="none" style="stroke:#181818;stroke-width:1;"/><text fill="#000000" font-family="sans-serif" font-size="13" lengthAdjust="spacing" textLength="70.1733" x="504" y="415.5684">HTTP 8080</text></g><g class="link" data-entity-1="ent0007" data-entity-2="ent0009" data-link-type="dependency" id="lnk23"><polygon fill="#181818" points="1253.4947,571.7029,1255.1047,561.9865,1252.2382,566.8633,1247.3614,563.9968,1253.4947,571.7029" style="stroke:#181818;stroke-width:1;"/><path d="M957.5591,481.6963 C1048.9743,486.981 1192.5797,500.6318 1233,535 C1243.8347,544.2124 1248.4901,552.4262 1251.9869,565.8954" fill="none" style="stroke:#181818;stroke-width:1;"/><text fill="#000000" font-family="sans-serif" font-size="13" lengthAdjust="spacing" textLength="109.77" x="1248" y="549.5684">TCP 6379 (cache)</text></g><g class="link" data-entity-1="ent0008" data-entity-2="ent0009" data-link-type="dependency" id="lnk24"><polygon fill="#181818" points="1160.9167,579.5018,1153.2282,573.3466,1156.0807,578.2315,1151.1958,581.0841,1160.9167,579.5018" style="stroke:#181818;stroke-width:1;"/><path d="M582.5354,489.3006 C640.1978,497.166 720.4387,507.9767 791,517 C856.7272,525.4051 877.1529,511.2167 939,535 C952.6957,540.2667 952.2755,548.809 966,554 C1034.1716,579.7843 1057.5681,557.5194 1129,572 C1139.4223,574.1128 1144.4116,575.1665 1155.1135,577.9775" fill="none" style="stroke:#181818;stroke-width:1;"/><text fill="#000000" font-family="sans-serif" font-size="13" lengthAdjust="spacing" textLength="109.77" x="968" y="549.5684">TCP 6379 (cache)</text></g><g class="link" data-entity-1="ent0007" data-entity-2="ent0010" data-link-type="dependency" id="lnk25"><polygon fill="#181818" points="830.8318,580.1622,840.5109,578.3414,834.9467,577.3218,835.9662,571.7576,830.8318,580.1622" style="stroke:#181818;stroke-width:1;"/><path d="M874.6407,517.1155 C871.7518,529.7977 866.9562,543.3565 859,554 C851.4216,564.1382 846.3777,569.4312 835.7696,576.7537" fill="none" style="stroke:#181818;stroke-width:1;"/><text fill="#000000" font-family="sans-serif" font-size="13" lengthAdjust="spacing" textLength="61.0264" x="872" y="549.5684">SQL 5432</text></g><g class="link" data-entity-1="ent0008" data-entity-2="ent0010" data-link-type="dependency" id="lnk26"><polygon fill="#181818" points="701.2034,587.316,693.8541,580.7595,696.4421,585.7897,691.412,588.3777,701.2034,587.316" style="stroke:#181818;stroke-width:1;"/><path d="M494.9615,517.1525 C494.1702,530.2853 496.1852,544.121 505,554 C526.0303,577.5691 615.1649,565.1462 646,572 C664.1544,576.0352 677.7689,579.8036 695.4898,585.4844" fill="none" style="stroke:#181818;stroke-width:1;"/><text fill="#000000" font-family="sans-serif" font-size="13" lengthAdjust="spacing" textLength="61.0264" x="507" y="549.5684">SQL 5432</text></g><g class="link" data-entity-1="ent0007" data-entity-2="ent0011" data-link-type="dependency" id="lnk27"><polygon fill="#181818" points="1078.6759,572.41,1087.217,567.506,1081.6271,568.3739,1080.7593,562.784,1078.6759,572.41" style="stroke:#181818;stroke-width:1;"/><path d="M957.6491,490.278 C1008.2996,499.6545 1067.481,514.5986 1083,535 C1091.9336,546.7441 1091.1681,555.3257 1082.2174,567.5667" fill="none" style="stroke:#181818;stroke-width:1;"/><text fill="#000000" font-family="sans-serif" font-size="13" lengthAdjust="spacing" textLength="138.3599" x="1089" y="549.5684">SQL shard B (planned)</text></g><g class="link" data-entity-1="ent0008" data-entity-2="ent0011" data-link-type="dependency" id="lnk28"><polygon fill="#181818" points="949.795,592.761,941.7573,587.0693,944.8926,591.7778,940.1842,594.9131,949.795,592.761" style="stroke:#181818;stroke-width:1;"/><path d="M582.9457,492.7207 C618.5677,501.4058 660.1469,514.8352 694,535 C704.26,541.1114 702.3185,548.6593 713,554 C763.5964,579.2982 783.2272,562.5451 839,572 C875.4126,578.1728 909.5674,584.693 943.9122,591.5812" fill="none" style="stroke:#181818;stroke-width:1;"/><text fill="#000000" font-family="sans-serif" font-size="13" lengthAdjust="spacing" textLength="138.3599" x="715" y="549.5684">SQL shard B (planned)</text></g><g class="link" data-entity-1="ent0007" data-entity-2="ent0012" data-link-type="dependency" id="lnk29"><polygon fill="#181818" points="355.55,587.3721,365.3976,587.5313,360.1513,585.4155,362.2671,580.1692,355.55,587.3721" style="stroke:#181818;stroke-width:1;"/><path d="M800.2213,489.0137 C680.7219,504.9875 466.9805,533.6708 463,535 C446.5808,540.483 444.5128,546.3183 429,554 C405.2929,565.7395 384.0941,575.2346 361.0716,585.0242" fill="none" style="stroke:#181818;stroke-width:1;"/><text fill="#000000" font-family="sans-serif" font-size="13" lengthAdjust="spacing" textLength="26.4761" x="465" y="549.5684">logs</text></g><g class="link" data-entity-1="ent0008" data-entity-2="ent0012" data-link-type="dependency" id="lnk30"><polygon fill="#181818" points="284.1914,579.8846,285.1787,570.0853,282.629,575.1349,277.5793,572.5852,284.1914,579.8846" style="stroke:#181818;stroke-width:1;"/><path d="M425.4262,494.0979 C366.9602,506.5005 295.809,523.6037 287,535 C277.2598,547.601 277.4128,559.2784 282.3165,574.185" fill="none" style="stroke:#181818;stroke-width:1;"/><text fill="#000000" font-family="sans-serif" font-size="13" lengthAdjust="spacing" textLength="26.4761" x="289" y="549.5684">logs</text></g><g class="link" data-entity-1="ent0006" data-entity-2="ent0012" data-link-type="dependency" id="lnk31"><polygon fill="#181818" points="280.321,579.6885,280.4268,569.8402,278.3395,575.0979,273.0818,573.0106,280.321,579.6885" style="stroke:#181818;stroke-width:1;"/><path d="M427.7234,383.1323 C374.6754,415.6782 307.2004,467.6972 277,535 C270.6281,549.2001 271.916,560.2164 277.9432,574.1798" fill="none" style="stroke:#181818;stroke-width:1;"/><text fill="#000000" font-family="sans-serif" font-size="13" lengthAdjust="spacing" textLength="26.4761" x="355" y="482.5684">logs</text></g><g class="link" data-entity-1="ent0013" data-entity-2="ent0012" data-link-type="dependency" id="lnk32"><polygon fill="#181818" points="279.9633,579.8567,279.4732,570.0201,277.7078,575.3944,272.3335,573.6289,279.9633,579.8567" style="stroke:#181818;stroke-width:1;"/><path d="M650.3816,115.1341 C652.9469,157.3596 654.5691,230.3565 637,249 C615.1852,272.1488 524.5557,255.2436 495,267 C481.7012,272.2899 482.3338,280.7991 469,286 C435.8719,298.9218 336.2029,279.9614 310,304 C233.2207,374.4375 276.9356,431.0366 270,535 C269.4379,543.4257 268.0165,545.7918 270,554 C272.1237,562.7881 273.1556,566.3884 277.2567,574.5019" fill="none" style="stroke:#181818;stroke-width:1;"/><text fill="#000000" font-family="sans-serif" font-size="13" lengthAdjust="spacing" textLength="66.1934" x="312" y="348.5684">query logs</text></g><g class="link" data-entity-1="ent0013" data-entity-2="ent0014" data-link-type="dependency" id="lnk33"><polygon fill="#181818" points="736.0059,177.7712,732.7387,168.48,732.5745,174.1345,726.92,173.9702,736.0059,177.7712" style="stroke:#181818;stroke-width:1;"/><path d="M676.9214,115.1517 C694.9216,134.2289 713.8743,154.3155 731.8882,173.4071" fill="none" style="stroke:#181818;stroke-width:1;"/><text fill="#000000" font-family="sans-serif" font-size="13" lengthAdjust="spacing" textLength="149.5698" x="713" y="147.5684">query metrics (planned)</text></g><g class="link" data-entity-1="ent0014" data-entity-2="ent0007" data-link-type="dependency" id="lnk34"><polygon fill="#181818" points="877.6604,437.669,881.0121,428.408,877.3058,432.6815,873.0323,428.9752,877.6604,437.669" style="stroke:#181818;stroke-width:1;"/><path d="M799.4302,241.055 C816.3404,257.955 835.5025,280.3009 847,304 C867.7402,346.7504 874.6606,395.4697 877.2349,431.6841" fill="none" style="stroke:#181818;stroke-width:1;"/><text fill="#000000" font-family="sans-serif" font-size="13" lengthAdjust="spacing" textLength="161.9922" x="873" y="348.5684">scrape /metrics (planned)</text></g><g class="link" data-entity-1="ent0014" data-entity-2="ent0008" data-link-type="dependency" id="lnk35"><polygon fill="#181818" points="582.721,469.6349,592.3628,471.6435,587.6081,468.5787,590.6729,463.824,582.721,469.6349" style="stroke:#181818;stroke-width:1;"/><path d="M725.6692,241.2591 C707.6986,257.7438 688.1836,279.6587 678,304 C673.0209,315.9013 680.7623,409.6957 673,420 C651.7797,448.1693 621.8101,461.187 588.5856,468.3675" fill="none" style="stroke:#181818;stroke-width:1;"/><text fill="#000000" font-family="sans-serif" font-size="13" lengthAdjust="spacing" textLength="161.9922" x="680" y="348.5684">scrape /metrics (planned)</text></g><g class="link" data-entity-1="ent0014" data-entity-2="ent0006" data-link-type="dependency" id="lnk36"><polygon fill="#181818" points="495.4056,303.8725,499.5667,294.9458,495.4955,298.8733,491.568,294.802,495.4056,303.8725" style="stroke:#181818;stroke-width:1;"/><path d="M682.3792,241.0424 C672.5627,244.0324 662.6155,246.7759 653,249 C621.3656,256.317 530.6002,243.6868 508,267 C498.6541,276.6407 495.7524,284.5857 495.5134,297.8735" fill="none" style="stroke:#181818;stroke-width:1;"/><text fill="#000000" font-family="sans-serif" font-size="13" lengthAdjust="spacing" textLength="161.9922" x="510" y="281.5684">scrape /metrics (planned)</text></g><g class="link" data-entity-1="ent0007" data-entity-2="ent0015" data-link-type="dependency" id="lnk37"><polygon fill="#181818" points="545.4439,588.4107,553.4465,582.6697,547.9727,584.0974,546.5451,578.6236,545.4439,588.4107" style="stroke:#181818;stroke-width:1;"/><path d="M800.2072,479.4344 C739.5431,483.452 655.7325,496.4301 593,535 C572.0269,547.8949 558.6191,565.9383 548.4785,583.2347" fill="none" style="stroke:#181818;stroke-width:1;"/><text fill="#000000" font-family="sans-serif" font-size="13" lengthAdjust="spacing" textLength="97.4556" x="595" y="549.5684">optional export</text></g><g class="link" data-entity-1="ent0008" data-entity-2="ent0015" data-link-type="dependency" id="lnk38"><polygon fill="#181818" points="432.9004,588.4959,425.0745,582.5164,428.0369,587.3355,423.2178,590.2979,432.9004,588.4959" style="stroke:#181818;stroke-width:1;"/><path d="M425.2861,485.8612 C365.1461,494.7334 297.3529,513.8155 328,554 C335.0278,563.2149 378.4706,575.509 427.0642,587.1034" fill="none" style="stroke:#181818;stroke-width:1;"/><text fill="#000000" font-family="sans-serif" font-size="13" lengthAdjust="spacing" textLength="97.4556" x="330" y="549.5684">optional export</text></g><g class="link" data-entity-1="ent0010" data-entity-2="ent0016" data-link-type="dependency" id="lnk39"><polygon fill="#181818" points="766,705.9004,770,696.9004,766,700.9004,762,696.9004,766,705.9004" style="stroke:#181818;stroke-width:1;"/><path d="M766,650.7308 C766,669.3616 766,684.9198 766,699.9004" fill="none" style="stroke:#181818;stroke-width:1;"/><text fill="#000000" font-family="sans-serif" font-size="13" lengthAdjust="spacing" textLength="41.1201" x="768" y="683.5684">mount</text></g><g class="link" data-entity-1="ent0011" data-entity-2="ent0017" data-link-type="dependency" id="lnk40"><polygon fill="#181818" points="1035,705.9004,1039,696.9004,1035,700.9004,1031,696.9004,1035,705.9004" style="stroke:#181818;stroke-width:1;"/><path d="M1035,650.7308 C1035,669.3616 1035,684.9198 1035,699.9004" fill="none" style="stroke:#181818;stroke-width:1;"/><text fill="#000000" font-family="sans-serif" font-size="13" lengthAdjust="spacing" textLength="41.1201" x="1037" y="683.5684">mount</text></g><g class="link" data-entity-1="ent0013" data-entity-2="ent0018" data-link-type="dependency" id="lnk41"><polygon fill="#181818" points="553.1135,189.9076,561.627,184.9558,556.0421,185.855,555.1429,180.2701,553.1135,189.9076" style="stroke:#181818;stroke-width:1;"/><path d="M615.0312,115.1435 C609.2052,120.9306 603.3099,127.0408 598,133 C581.506,151.511 567.9425,169.3872 556.6278,185.0445" fill="none" style="stroke:#181818;stroke-width:1;"/><text fill="#000000" font-family="sans-serif" font-size="13" lengthAdjust="spacing" textLength="41.1201" x="600" y="147.5684">mount</text></g><?plantuml-src ZLJ1Rk8m4BtdAsRXqXuYKYW5eWg94j0UUkYgbVRIooIu4E7ONjlGhLRxxsixJZ2bT7j2UVFUiptpXcz2uhf2eFZ6TnfKHJGoZDIsP08bLa1BHlIR8C2btl0eOdn5e3Ed9M4Qx4S7K45HV_-9053gyWKB3PqxoLyLaT23EMUAK-9fWGA5YFusfXaljeQ-uKe_iuk2Lu8h0kRuLowtAIY2ijZ4vllIELYUEx5Mr-LNaXlFPrPMk2OfF3hm9ybd5XpshoVnT9oC4sTWkD3DnelPSl7EXN9SvKYH5KI-yxetfRksD4n6my2HdZD4KLwzCvg9qkglHe7UqiuxzCyuZ8yT-gr3Qo79gbHnWSM6mEsjCBTdP3MTjdwkdewUcJ1JJk5cC9euDuT3TxbS3kRNrcw56dCqK-cOsUYr92f6evB6Hxw1sg1SmQon6LuF-iv6h16wiz5oa2KVU-J7jwfzxWAV0PHC4ycGUiCyl5NzICgtPICPN2L-8WQ4xY9RJ8AEhYM-c9ItvCIJFNx25vARlTYGdJg-PosV99DQRcdjjHejruJ61QUK59hBKEyqjXm-vR0zUqvtbPbDsoJRjnYTQcyRcisNyyNe2vhyvDHzqB-FzBuHJku5qXoOPJUcAsPVs-M5E9wwFKhX-zFJmoFO5OiiO0kqmQ5dSjchWnpHkkYoxiislW7UFy8TqLRgDARmD7zm4OKBb-ZBo4d-nwWzR1JD_louT-ayA4_nXfzxt8SIBdmhBqFnfwJQoIKnDJzhTL26e7z_23M13F1VEs8sxQJgijTKJLXbMQZW5guST5qL4ir_UkzpPlzhJ3Vcyxos0oxhAN2XIsus6SXlkq27Pfofsz7OyjwDgE8xPh7SOtcBXUsmUVNuFm00?></g></svg>