<?plantuml 1.2026.2?><svg xmlns="http://www.w3.org/2000/svg" xmlns:xlink="http://www.w3.org/1999/xlink" contentStyleType="text/css" data-diagram-type="CLASS" height="344px" preserveAspectRatio="none" style="width:446px;height:344px;background:#FFFFFF;" version="1.1" viewBox="0 0 446 344" width="446px" zoomAndPan="magnify"><defs/><g><g class="entity" data-qualified-name="Req" data-source-line="4" id="ent0002"><rect fill="#F1F1F1" height="52.9766" rx="2.5" ry="2.5" style="stroke:#181818;stroke-width:0.5;" width="139.7539" x="168.5" y="12"/><text fill="#000000" font-family="sans-serif" font-size="14" lengthAdjust="spacing" textLength="125.7539" x="175.5" y="27.5352">req:SearchRequest</text><text fill="#000000" font-family="sans-serif" font-size="14" lengthAdjust="spacing" textLength="97.5967" x="189.5786" y="44.0234">Query=energy</text><line style="stroke:#181818;stroke-width:0.5;" x1="169.5" x2="307.2539" y1="48.9766" y2="48.9766"/></g><g class="entity" data-qualified-name="LB" data-source-line="5" id="ent0003"><rect fill="#F1F1F1" height="36.4883" rx="2.5" ry="2.5" style="stroke:#181818;stroke-width:0.5;" width="165.5049" x="155.5" y="120"/><text fill="#000000" font-family="sans-serif" font-size="14" lengthAdjust="spacing" textLength="151.5049" x="162.5" y="135.5352">lb:SearchLoadBalancer</text><line style="stroke:#181818;stroke-width:0.5;" x1="156.5" x2="320.0049" y1="140.4883" y2="140.4883"/></g><g class="entity" data-qualified-name="API" data-source-line="6" id="ent0004"><rect fill="#F1F1F1" height="36.4883" rx="2.5" ry="2.5" style="stroke:#181818;stroke-width:0.5;" width="106.1963" x="185.5" y="211"/><text fill="#000000" font-family="sans-serif" font-size="14" lengthAdjust="spacing" textLength="92.1963" x="192.5" y="226.5352">api:SearchApi</text><line style="stroke:#181818;stroke-width:0.5;" x1="186.5" x2="290.6963" y1="231.4883" y2="231.4883"/></g><g class="entity" data-qualified-name="Cache" data-source-line="7" id="ent0005"><rect fill="#F1F1F1" height="36.4883" rx="2.5" ry="2.5" style="stroke:#181818;stroke-width:0.5;" width="167.3164" x="6" y="302"/><text fill="#000000" font-family="sans-serif" font-size="14" lengthAdjust="spacing" textLength="153.3164" x="13" y="317.5352">cache:Redis &#171;planned&#187;</text><line style="stroke:#181818;stroke-width:0.5;" x1="7" x2="172.3164" y1="322.4883" y2="322.4883"/></g><g class="entity" data-qualified-name="DB" data-source-line="8" id="ent0006"><rect fill="#F1F1F1" height="36.4883" rx="2.5" ry="2.5" style="stroke:#181818;stroke-width:0.5;" width="94.1582" x="191.5" y="302"/><text fill="#000000" font-family="sans-serif" font-size="14" lengthAdjust="spacing" textLength="80.1582" x="198.5" y="317.5352">db:Postgres</text><line style="stroke:#181818;stroke-width:0.5;" x1="192.5" x2="284.6582" y1="322.4883" y2="322.4883"/></g><g class="entity" data-qualified-name="Res" data-source-line="9" id="ent0007"><rect fill="#F1F1F1" height="36.4883" rx="2.5" ry="2.5" style="stroke:#181818;stroke-width:0.5;" width="125.5146" x="303.5" y="302"/><text fill="#000000" font-family="sans-serif" font-size="14" lengthAdjust="spacing" textLength="111.5146" x="310.5" y="317.5352">res:SearchResult</text><line style="stroke:#181818;stroke-width:0.5;" x1="304.5" x2="428.0146" y1="322.4883" y2="322.4883"/></g><g class="link" data-entity-1="ent0002" data-entity-2="ent0003" data-link-type="dependency" id="lnk8"><polygon fill="#181818" points="238.5,119.8389,242.5,110.8389,238.5,114.8389,234.5,110.8389,238.5,119.8389" style="stroke:#181818;stroke-width:1;"/><path d="M238.5,65.117 C238.5,82.3818 238.5,98.6859 238.5,113.8389" fill="none" style="stroke:#181818;stroke-width:1;"/><text fill="#000000" font-family="sans-serif" font-size="13" lengthAdjust="spacing" textLength="30.1196" x="240.5" y="97.5684">send</text></g><g class="link" data-entity-1="ent0003" data-entity-2="ent0004" data-link-type="dependency" id="lnk9"><polygon fill="#181818" points="238.5,210.8926,242.5,201.8926,238.5,205.8926,234.5,201.8926,238.5,210.8926" style="stroke:#181818;stroke-width:1;"/><path d="M238.5,156.1601 C238.5,171.92 238.5,189.1494 238.5,204.8926" fill="none" style="stroke:#181818;stroke-width:1;"/><text fill="#000000" font-family="sans-serif" font-size="13" lengthAdjust="spacing" textLength="33.4775" x="240.5" y="188.5684">route</text></g><g class="link" data-entity-1="ent0004" data-entity-2="ent0005" data-link-type="dependency" id="lnk10"><polygon fill="#181818" points="118.1405,301.8926,127.9183,300.7114,122.433,299.3286,123.8159,293.8434,118.1405,301.8926" style="stroke:#181818;stroke-width:1;"/><path d="M209.7713,247.1601 C183.3868,262.92 149.6482,283.0726 123.2916,298.8158" fill="none" style="stroke:#181818;stroke-width:1;"/><text fill="#000000" font-family="sans-serif" font-size="13" lengthAdjust="spacing" textLength="43.5767" x="179.5" y="279.5684">lookup</text></g><g class="link" data-entity-1="ent0004" data-entity-2="ent0006" data-link-type="dependency" id="lnk11"><polygon fill="#181818" points="238.5,301.8926,242.5,292.8926,238.5,296.8926,234.5,292.8926,238.5,301.8926" style="stroke:#181818;stroke-width:1;"/><path d="M238.5,247.1601 C238.5,262.92 238.5,280.1494 238.5,295.8926" fill="none" style="stroke:#181818;stroke-width:1;"/><text fill="#000000" font-family="sans-serif" font-size="13" lengthAdjust="spacing" textLength="97.4873" x="240.5" y="279.5684">query (on miss)</text></g><g class="link" data-entity-1="ent0004" data-entity-2="ent0007" data-link-type="dependency" id="lnk12"><polygon fill="#181818" points="363.1402,301.9959,364.6786,292.2679,361.8481,297.1657,356.9503,294.3353,363.1402,301.9959" style="stroke:#181818;stroke-width:1;"/><path d="M291.6746,238.4853 C309.88,243.6199 329.2332,251.8431 343.5,265 C354.0621,274.7404 358.4162,284.3364 361.5897,296.1997" fill="none" style="stroke:#181818;stroke-width:1;"/><text fill="#000000" font-family="sans-serif" font-size="13" lengthAdjust="spacing" textLength="78.8696" x="358.5" y="279.5684">return result</text></g><?plantuml-src JP2nRiCm34HtVGMRgHto0qPg86wM0XdITEr2suIZHfPaKXhyzwKCG-Waukw9T-1BP9nc18Tho0bafeGUZJojZyWuWxEUqXe90gT7C2RqlpGaE30jpJSX3uyxBPaa_VYlJBo-aoUUrWEWW3gLT_sENmEE7Jhq0_56NRiAORGxTOvsCy-tp-eEE3oekTDe1Kwdg2iyZMsxSH_5g-JODxSWQMAIpRrq_tfBxItPfRse6ADjuNXijGyq8EH7erCHj8CghFSXK-QYRNcgkX2UELRvKlukvGxm6ZpCLkIjcffIzb3AxFKfwNy0?></g></svg>