<?plantuml 1.2026.2?><svg xmlns="http://www.w3.org/2000/svg" xmlns:xlink="http://www.w3.org/1999/xlink" contentStyleType="text/css" data-diagram-type="DESCRIPTION" height="531px" preserveAspectRatio="none" style="width:453px;height:531px;background:#FFFFFF;" version="1.1" viewBox="0 0 453 531" width="453px" zoomAndPan="magnify"><defs/><g><!--cluster Docker Host (compose)--><g class="cluster" data-qualified-name="Docker Host .compose." data-source-line="6" id="ent0003"><polygon fill="none" points="14,135,24,125,436,125,436,504,426,514,14,514,14,135" style="stroke:#181818;stroke-width:1;"/><line style="stroke:#181818;stroke-width:1;" x1="426" x2="436" y1="135" y2="125"/><line style="stroke:#181818;stroke-width:1;" x1="14" x2="426" y1="135" y2="135"/><line style="stroke:#181818;stroke-width:1;" x1="426" x2="426" y1="135" y2="514"/><text fill="#000000" font-family="sans-serif" font-size="14" font-weight="bold" lengthAdjust="spacing" textLength="168.2871" x="136.8564" y="151.5352">Docker Host (compose)</text></g><!--entity User--><g class="entity" data-qualified-name="User" data-source-line="4" id="ent0002"><ellipse cx="306.1826" cy="12.5" fill="#F1F1F1" rx="8" ry="8" style="stroke:#181818;stroke-width:0.5;"/><path d="M306.1826,20.5 L306.1826,47.5 M293.1826,28.5 L319.1826,28.5 M306.1826,47.5 L293.1826,62.5 M306.1826,47.5 L319.1826,62.5" fill="none" style="stroke:#181818;stroke-width:0.5;"/><text fill="#000000" font-family="sans-serif" font-size="14" lengthAdjust="spacing" textLength="30.3652" x="291" y="77.5352">User</text></g><!--entity Web--><g class="entity" data-qualified-name="Docker Host .compose..Web" data-source-line="7" id="ent0004"><polygon fill="#F1F1F1" points="235.5,167,245.5,157,376.0293,157,376.0293,193.4883,366.0293,203.4883,235.5,203.4883,235.5,167" style="stroke:#181818;stroke-width:0.5;"/><line style="stroke:#181818;stroke-width:0.5;" x1="366.0293" x2="376.0293" y1="167" y2="157"/><line style="stroke:#181818;stroke-width:0.5;" x1="235.5" x2="366.0293" y1="167" y2="167"/><line style="stroke:#181818;stroke-width:0.5;" x1="366.0293" x2="366.0293" y1="167" y2="203.4883"/><text fill="#000000" font-family="sans-serif" font-size="14" lengthAdjust="spacing" textLength="100.5293" x="250.5" y="190.5352">SearchWebApp</text></g><!--entity LB--><g class="entity" data-qualified-name="Docker Host .compose..LB" data-source-line="8" id="ent0005"><polygon fill="#F1F1F1" points="219,268,229,258,393.2168,258,393.2168,294.4883,383.2168,304.4883,219,304.4883,219,268" style="stroke:#181818;stroke-width:0.5;"/><line style="stroke:#181818;stroke-width:0.5;" x1="383.2168" x2="393.2168" y1="268" y2="258"/><line style="stroke:#181818;stroke-width:0.5;" x1="219" x2="383.2168" y1="268" y2="268"/><line style="stroke:#181818;stroke-width:0.5;" x1="383.2168" x2="383.2168" y1="268" y2="304.4883"/><text fill="#000000" font-family="sans-serif" font-size="14" lengthAdjust="spacing" textLength="134.2168" x="234" y="291.5352">SearchLoadBalancer</text></g><!--entity API--><g class="entity" data-qualified-name="Docker Host .compose..API" data-source-line="9" id="ent0006"><polygon fill="#F1F1F1" points="127.5,369,137.5,359,256.5449,359,256.5449,395.4883,246.5449,405.4883,127.5,405.4883,127.5,369" style="stroke:#181818;stroke-width:0.5;"/><line style="stroke:#181818;stroke-width:0.5;" x1="246.5449" x2="256.5449" y1="369" y2="359"/><line style="stroke:#181818;stroke-width:0.5;" x1="127.5" x2="246.5449" y1="369" y2="369"/><line style="stroke:#181818;stroke-width:0.5;" x1="246.5449" x2="246.5449" y1="369" y2="405.4883"/><text fill="#000000" font-family="sans-serif" font-size="14" lengthAdjust="spacing" textLength="89.0449" x="142.5" y="392.5352">SearchApi x2</text></g><!--entity PG--><g class="entity" data-qualified-name="Docker Host .compose..PG" data-source-line="10" id="ent0007"><path d="M22,470.5 C22,460.5 61.0527,460.5 61.0527,460.5 C61.0527,460.5 100.1055,460.5 100.1055,470.5 L100.1055,495.9883 C100.1055,505.9883 61.0527,505.9883 61.0527,505.9883 C61.0527,505.9883 22,505.9883 22,495.9883 L22,470.5" fill="#F1F1F1" style="stroke:#181818;stroke-width:0.5;"/><path d="M22,470.5 C22,480.5 61.0527,480.5 61.0527,480.5 C61.0527,480.5 100.1055,480.5 100.1055,470.5" fill="none" style="stroke:#181818;stroke-width:0.5;"/><text fill="#000000" font-family="sans-serif" font-size="14" lengthAdjust="spacing" textLength="58.1055" x="32" y="498.0352">Postgres</text></g><!--entity Redis--><g class="entity" data-qualified-name="Docker Host .compose..Redis" data-source-line="11" id="ent0008"><polygon fill="#F1F1F1" points="118,470,128,460,268.3252,460,268.3252,496.4883,258.3252,506.4883,118,506.4883,118,470" style="stroke:#181818;stroke-width:0.5;"/><line style="stroke:#181818;stroke-width:0.5;" x1="258.3252" x2="268.3252" y1="470" y2="460"/><line style="stroke:#181818;stroke-width:0.5;" x1="118" x2="258.3252" y1="470" y2="470"/><line style="stroke:#181818;stroke-width:0.5;" x1="258.3252" x2="258.3252" y1="470" y2="506.4883"/><text fill="#000000" font-family="sans-serif" font-size="14" lengthAdjust="spacing" textLength="110.3252" x="133" y="493.5352">Redis &#171;planned&#187;</text></g><!--entity Obs--><g class="entity" data-qualified-name="Docker Host .compose..Obs" data-source-line="12" id="ent0009"><polygon fill="#F1F1F1" points="286.5,470,296.5,460,427.6582,460,427.6582,496.4883,417.6582,506.4883,286.5,506.4883,286.5,470" style="stroke:#181818;stroke-width:0.5;"/><line style="stroke:#181818;stroke-width:0.5;" x1="417.6582" x2="427.6582" y1="470" y2="460"/><line style="stroke:#181818;stroke-width:0.5;" x1="286.5" x2="417.6582" y1="470" y2="470"/><line style="stroke:#181818;stroke-width:0.5;" x1="417.6582" x2="417.6582" y1="470" y2="506.4883"/><text fill="#000000" font-family="sans-serif" font-size="14" lengthAdjust="spacing" textLength="101.1582" x="301.5" y="493.5352">Loki + Grafana</text></g><g class="link" data-entity-1="ent0002" data-entity-2="ent0004" data-link-type="dependency" id="lnk10"><polygon fill="#181818" points="306,156.7707,310,147.7707,306,151.7707,302,147.7707,306,156.7707" style="stroke:#181818;stroke-width:1;"/><path d="M306,80.1626 C306,104.7004 306,130.0348 306,150.7707" fill="none" style="stroke:#181818;stroke-width:1;"/><text fill="#000000" font-family="sans-serif" font-size="13" lengthAdjust="spacing" textLength="50.6924" x="308" y="112.5684">browser</text></g><g class="link" data-entity-1="ent0004" data-entity-2="ent0005" data-link-type="dependency" id="lnk11"><polygon fill="#181818" points="306,257.9653,310,248.9653,306,252.9653,302,248.9653,306,257.9653" style="stroke:#181818;stroke-width:1;"/><path d="M306,203.4646 C306,219.7807 306,235.7497 306,251.9653" fill="none" style="stroke:#181818;stroke-width:1;"/><text fill="#000000" font-family="sans-serif" font-size="13" lengthAdjust="spacing" textLength="73.8486" x="308" y="235.5684">/api/search</text></g><g class="link" data-entity-1="ent0005" data-entity-2="ent0006" data-link-type="dependency" id="lnk12"><polygon fill="#181818" points="217.4984,358.8566,226.9165,355.9756,221.2736,355.5782,221.671,349.9353,217.4984,358.8566" style="stroke:#181818;stroke-width:1;"/><path d="M280.4162,304.2175 C261.6413,320.522 240.7834,338.6354 222.0286,354.9225" fill="none" style="stroke:#181818;stroke-width:1;"/><text fill="#000000" font-family="sans-serif" font-size="13" lengthAdjust="spacing" textLength="85.1348" x="262" y="336.5684">route request</text></g><g class="link" data-entity-1="ent0006" data-entity-2="ent0007" data-link-type="dependency" id="lnk13"><polygon fill="#181818" points="84.615,460.4295,94.0039,457.4548,88.3574,457.1136,88.6985,451.4671,84.615,460.4295" style="stroke:#181818;stroke-width:1;"/><path d="M156.0333,405.0425 C147.355,410.6767 138.2184,416.8785 130,423 C114.3261,434.6748 102.1384,444.9031 89.1058,456.4505" fill="none" style="stroke:#181818;stroke-width:1;"/><text fill="#000000" font-family="sans-serif" font-size="13" lengthAdjust="spacing" textLength="24.0322" x="132" y="437.5684">SQL</text></g><g class="link" data-entity-1="ent0006" data-entity-2="ent0008" data-link-type="dependency" id="lnk14"><polygon fill="#181818" points="172.4564,459.7656,170.4876,450.1155,169.5534,455.6947,163.9742,454.7604,172.4564,459.7656" style="stroke:#181818;stroke-width:1;"/><path d="M172.1333,405.3202 C168.3843,410.7546 165.0113,416.7991 163,423 C160.3946,431.0325 160.3296,433.9889 163,442 C165.0862,448.2587 165.0941,449.4416 168.9727,454.8805" fill="none" style="stroke:#181818;stroke-width:1;"/><text fill="#000000" font-family="sans-serif" font-size="13" lengthAdjust="spacing" textLength="99.0552" x="165" y="437.5684">cache (planned)</text></g><g class="link" data-entity-1="ent0006" data-entity-2="ent0009" data-link-type="dependency" id="lnk15"><polygon fill="#181818" points="317.1396,459.98,311.4426,451.9461,312.8402,457.4276,307.3587,458.8252,317.1396,459.98" style="stroke:#181818;stroke-width:1;"/><path d="M236.2657,405.1033 C246.2646,410.593 256.6748,416.7157 266,423 C276.9953,430.4098 278.1405,434.3925 289,442 C297.8621,448.2082 302.571,451.3311 311.9803,456.9171" fill="none" style="stroke:#181818;stroke-width:1;"/><text fill="#000000" font-family="sans-serif" font-size="13" lengthAdjust="spacing" textLength="79.8979" x="291" y="437.5684">logs/metrics</text></g><g class="link" data-entity-1="ent0005" data-entity-2="ent0009" data-link-type="dependency" id="lnk16"><polygon fill="#181818" points="366.865,459.9764,373.7373,452.9215,368.5986,455.2865,366.2335,450.1478,366.865,459.9764" style="stroke:#181818;stroke-width:1;"/><path d="M338.4176,304.3898 C344.0155,309.5826 349.2354,315.5128 353,322 C380.1024,368.7034 381.6345,388.8688 372,442 C370.9149,447.9841 371.0662,448.6108 368.9453,454.3485" fill="none" style="stroke:#181818;stroke-width:1;"/><text fill="#000000" font-family="sans-serif" font-size="13" lengthAdjust="spacing" textLength="26.4761" x="379" y="387.0684">logs</text></g><?plantuml-src NP5FImCn4CNl-HHZJorI2XvBARG8gx3WQX7Fizbf6_PFuaoA5l6xEqbrXTwIztl9l9VS1CP3Zz3XsPyYI4yH1pJIkY4WOm-T6oYU0u7dUFJ6e8sUuLM8ZHbyGp2vzxObXWSl4QRMzy4BpIRmPG0kXXqXs-CRrPiG9e02kho2fSTcYnqEbZXRoksLOnCSVDvbjgaU5JOOiKPHGwMJ3qoIOLMC1r-eSGAhLT1x1shMwsp8wkWfVUlW5Wh6lVREXgTQpBSngIBCv-kK5fPGi_z8fTCkgULMnGK6jv2SpwYGT0sdWFKn2PZUJoJH92sngb2qUov7uP9m2HRjaM3w6tGsSesYjFC7MUZ7iBFoD-QV_000?></g></svg>