<?plantuml 1.2026.2?><svg xmlns="http://www.w3.org/2000/svg" xmlns:xlink="http://www.w3.org/1999/xlink" contentStyleType="text/css" data-diagram-type="CLASS" height="1116px" preserveAspectRatio="none" style="width:1244px;height:1116px;background:#FFFFFF;" version="1.1" viewBox="0 0 1244 1116" width="1244px" zoomAndPan="magnify"><defs/><g><g class="entity" data-qualified-name="req1" data-source-line="4" id="ent0002"><rect fill="#DCFCE7" height="110.9297" rx="2.5" ry="2.5" style="stroke:#181818;stroke-width:0.5;" width="243.7656" x="972" y="12"/><text fill="#000000" font-family="sans-serif" font-size="14" lengthAdjust="spacing" textLength="134.6064" x="1026.5796" y="27.5352">req1:SearchRequest</text><line style="stroke:#181818;stroke-width:0.5;" x1="973" x2="1214.7656" y1="32.4883" y2="32.4883"/><text fill="#000000" font-family="sans-serif" font-size="14" lengthAdjust="spacing" textLength="169.0938" x="978" y="50.0234">Query = "energy market"</text><text fill="#000000" font-family="sans-serif" font-size="14" lengthAdjust="spacing" textLength="120.0117" x="978" y="66.5117">MaxAmount = 20</text><text fill="#000000" font-family="sans-serif" font-size="14" lengthAdjust="spacing" textLength="143.7461" x="978" y="83">CaseSensitive = false</text><text fill="#000000" font-family="sans-serif" font-size="14" lengthAdjust="spacing" textLength="152.291" x="978" y="99.4883">Database = "postgres"</text><text fill="#000000" font-family="sans-serif" font-size="14" lengthAdjust="spacing" textLength="231.7656" x="978" y="115.9766">TenantKey = "group-a" &#171;planned&#187;</text></g><g class="entity" data-qualified-name="web1" data-source-line="12" id="ent0003"><rect fill="#D8EAFE" height="36.4883" rx="2.5" ry="2.5" style="stroke:#181818;stroke-width:0.5;" width="155.21" x="1016.5" y="178"/><text fill="#000000" font-family="sans-serif" font-size="14" lengthAdjust="spacing" textLength="141.21" x="1023.5" y="193.5352">web1:SearchWebApp</text><line style="stroke:#181818;stroke-width:0.5;" x1="1017.5" x2="1170.71" y1="198.4883" y2="198.4883"/></g><g class="entity" data-qualified-name="lb1" data-source-line="13" id="ent0004"><rect fill="#D8EAFE" height="36.4883" rx="2.5" ry="2.5" style="stroke:#181818;stroke-width:0.5;" width="174.3574" x="922" y="269"/><text fill="#000000" font-family="sans-serif" font-size="14" lengthAdjust="spacing" textLength="160.3574" x="929" y="284.5352">lb1:SearchLoadBalancer</text><line style="stroke:#181818;stroke-width:0.5;" x1="923" x2="1095.3574" y1="289.4883" y2="289.4883"/></g><g class="entity" data-qualified-name="scheduler1" data-source-line="14" id="ent0005"><rect fill="#D8EAFE" height="61.4648" rx="2.5" ry="2.5" style="stroke:#181818;stroke-width:0.5;" width="298.5049" x="835.5" y="360"/><text fill="#000000" font-family="sans-serif" font-size="14" lengthAdjust="spacing" textLength="284.5049" x="842.5" y="375.5352">scheduler1:RoundRobinBackendScheduler</text><line style="stroke:#181818;stroke-width:0.5;" x1="836.5" x2="1133.0049" y1="380.4883" y2="380.4883"/><text fill="#000000" font-family="sans-serif" font-size="14" lengthAdjust="spacing" textLength="152.2295" x="841.5" y="398.0234">name = "round-robin"</text><text fill="#000000" font-family="sans-serif" font-size="14" lengthAdjust="spacing" textLength="97.8291" x="841.5" y="414.5117">startIndex = 0</text></g><g class="entity" data-qualified-name="backend1" data-source-line="19" id="ent0006"><rect fill="#D8EAFE" height="61.4648" rx="2.5" ry="2.5" style="stroke:#181818;stroke-width:0.5;" width="254.0264" x="818" y="476"/><text fill="#000000" font-family="sans-serif" font-size="14" lengthAdjust="spacing" textLength="187.3867" x="851.3198" y="491.5352">backend1:BackendEndpoint</text><line style="stroke:#181818;stroke-width:0.5;" x1="819" x2="1071.0264" y1="496.4883" y2="496.4883"/><text fill="#000000" font-family="sans-serif" font-size="14" lengthAdjust="spacing" textLength="157.6367" x="824" y="514.0234">name = "search-api-1"</text><text fill="#000000" font-family="sans-serif" font-size="14" lengthAdjust="spacing" textLength="242.0264" x="824" y="530.5117">baseUrl = "http://searchapi1:8080"</text></g><g class="entity" data-qualified-name="api1" data-source-line="24" id="ent0007"><rect fill="#D8EAFE" height="44.9766" rx="2.5" ry="2.5" style="stroke:#181818;stroke-width:0.5;" width="201.6904" x="684" y="592"/><text fill="#000000" font-family="sans-serif" font-size="14" lengthAdjust="spacing" textLength="157.5342" x="706.0781" y="607.5352">api1:SearchApiInstance</text><line style="stroke:#181818;stroke-width:0.5;" x1="685" x2="884.6904" y1="612.4883" y2="612.4883"/><text fill="#000000" font-family="sans-serif" font-size="14" lengthAdjust="spacing" textLength="189.6904" x="690" y="630.0234">instanceId = "search-api-1"</text></g><g class="entity" data-qualified-name="cachedSvc" data-source-line="28" id="ent0008"><rect fill="#FFF3C4" height="36.4883" rx="2.5" ry="2.5" style="stroke:#181818;stroke-width:0.5;" width="303.3174" x="416.5" y="692"/><text fill="#000000" font-family="sans-serif" font-size="14" lengthAdjust="spacing" textLength="289.3174" x="423.5" y="707.5352">cachedSvc:CachedSearchService &#171;planned&#187;</text><line style="stroke:#181818;stroke-width:0.5;" x1="417.5" x2="718.8174" y1="712.4883" y2="712.4883"/></g><g class="entity" data-qualified-name="keyBuilder1" data-source-line="29" id="ent0009"><rect fill="#FFF3C4" height="44.9766" rx="2.5" ry="2.5" style="stroke:#181818;stroke-width:0.5;" width="365.8691" x="6" y="791"/><text fill="#000000" font-family="sans-serif" font-size="14" lengthAdjust="spacing" textLength="269.9375" x="53.9658" y="806.5352">keyBuilder1:CacheKeyBuilder &#171;planned&#187;</text><line style="stroke:#181818;stroke-width:0.5;" x1="7" x2="370.8691" y1="811.4883" y2="811.4883"/><text fill="#000000" font-family="sans-serif" font-size="14" lengthAdjust="spacing" textLength="353.8691" x="12" y="829.0234">key = "group-a|postgres-a|energy market|20|false"</text></g><g class="entity" data-qualified-name="cache1" data-source-line="33" id="ent0010"><rect fill="#FFF3C4" height="61.4648" rx="2.5" ry="2.5" style="stroke:#181818;stroke-width:0.5;" width="257.6533" x="448" y="1040.5"/><text fill="#000000" font-family="sans-serif" font-size="14" lengthAdjust="spacing" textLength="243.6533" x="455" y="1056.0352">cache1:RedisQueryCache &#171;planned&#187;</text><line style="stroke:#181818;stroke-width:0.5;" x1="449" x2="704.6533" y1="1060.9883" y2="1060.9883"/><text fill="#000000" font-family="sans-serif" font-size="14" lengthAdjust="spacing" textLength="109.9834" x="454" y="1078.5234">cacheHit = false</text><text fill="#000000" font-family="sans-serif" font-size="14" lengthAdjust="spacing" textLength="68.2021" x="454" y="1095.0117">ttl = 300s</text></g><g class="entity" data-qualified-name="router1" data-source-line="38" id="ent0011"><rect fill="#FFF3C4" height="44.9766" rx="2.5" ry="2.5" style="stroke:#181818;stroke-width:0.5;" width="273.1436" x="428.5" y="791"/><text fill="#000000" font-family="sans-serif" font-size="14" lengthAdjust="spacing" textLength="259.1436" x="435.5" y="806.5352">router1:TenantShardRouter &#171;planned&#187;</text><line style="stroke:#181818;stroke-width:0.5;" x1="429.5" x2="700.6436" y1="811.4883" y2="811.4883"/><text fill="#000000" font-family="sans-serif" font-size="14" lengthAdjust="spacing" textLength="194.1133" x="434.5" y="829.0234">resolve(req1) = "postgres-a"</text></g><g class="entity" data-qualified-name="logic1" data-source-line="42" id="ent0012"><rect fill="#D8EAFE" height="36.4883" rx="2.5" ry="2.5" style="stroke:#181818;stroke-width:0.5;" width="140.5469" x="719.5" y="795.5"/><text fill="#000000" font-family="sans-serif" font-size="14" lengthAdjust="spacing" textLength="126.5469" x="726.5" y="811.0352">logic1:SearchLogic</text><line style="stroke:#181818;stroke-width:0.5;" x1="720.5" x2="859.0469" y1="815.9883" y2="815.9883"/></g><g class="entity" data-qualified-name="db1" data-source-line="43" id="ent0013"><rect fill="#A7F3D0" height="44.9766" rx="2.5" ry="2.5" style="stroke:#181818;stroke-width:0.5;" width="165.6758" x="607" y="915.5"/><text fill="#000000" font-family="sans-serif" font-size="14" lengthAdjust="spacing" textLength="151.6758" x="614" y="931.0352">db1:DatabasePostgres</text><line style="stroke:#181818;stroke-width:0.5;" x1="608" x2="771.6758" y1="935.9883" y2="935.9883"/><text fill="#000000" font-family="sans-serif" font-size="14" lengthAdjust="spacing" textLength="143.5547" x="613" y="953.5234">shard = "postgres-a"</text></g><g class="entity" data-qualified-name="result1" data-source-line="47" id="ent0014"><rect fill="#DCFCE7" height="77.9531" rx="2.5" ry="2.5" style="stroke:#181818;stroke-width:0.5;" width="198.1768" x="791" y="899"/><text fill="#000000" font-family="sans-serif" font-size="14" lengthAdjust="spacing" textLength="138.3389" x="820.9189" y="914.5352">result1:SearchResult</text><line style="stroke:#181818;stroke-width:0.5;" x1="792" x2="988.1768" y1="919.4883" y2="919.4883"/><text fill="#000000" font-family="sans-serif" font-size="14" lengthAdjust="spacing" textLength="99.3672" x="797" y="937.0234">NoOfHits = 42</text><text fill="#000000" font-family="sans-serif" font-size="14" lengthAdjust="spacing" textLength="186.1768" x="797" y="953.5117">CacheHit = false &#171;planned&#187;</text><text fill="#000000" font-family="sans-serif" font-size="14" lengthAdjust="spacing" textLength="129.5479" x="797" y="970">TimeUsed = 72 ms</text></g><g class="entity" data-qualified-name="resp1" data-source-line="53" id="ent0015"><rect fill="#DCFCE7" height="77.9531" rx="2.5" ry="2.5" style="stroke:#181818;stroke-width:0.5;" width="280.9736" x="900.5" y="1032"/><text fill="#000000" font-family="sans-serif" font-size="14" lengthAdjust="spacing" textLength="174.7607" x="953.6064" y="1047.5352">resp1:SearchApiResponse</text><line style="stroke:#181818;stroke-width:0.5;" x1="901.5" x2="1180.4736" y1="1052.4883" y2="1052.4883"/><text fill="#000000" font-family="sans-serif" font-size="14" lengthAdjust="spacing" textLength="176.7842" x="906.5" y="1070.0234">Backend = "search-api-1"</text><text fill="#000000" font-family="sans-serif" font-size="14" lengthAdjust="spacing" textLength="170.2559" x="906.5" y="1086.5117">Strategy = "round-robin"</text><text fill="#000000" font-family="sans-serif" font-size="14" lengthAdjust="spacing" textLength="268.9736" x="906.5" y="1103">X-SearchApi-Instance = "search-api-1"</text></g><g class="entity" data-qualified-name="metrics1" data-source-line="59" id="ent0016"><rect fill="#FFF3C4" height="61.4648" rx="2.5" ry="2.5" style="stroke:#181818;stroke-width:0.5;" width="262.7598" x="878.5" y="783"/><text fill="#000000" font-family="sans-serif" font-size="14" lengthAdjust="spacing" textLength="248.7598" x="885.5" y="798.5352">metrics1:MetricsSnapshot &#171;planned&#187;</text><line style="stroke:#181818;stroke-width:0.5;" x1="879.5" x2="1140.2598" y1="803.4883" y2="803.4883"/><text fill="#000000" font-family="sans-serif" font-size="14" lengthAdjust="spacing" textLength="97.7813" x="884.5" y="821.0234">cacheMiss = 1</text><text fill="#000000" font-family="sans-serif" font-size="14" lengthAdjust="spacing" textLength="97.6992" x="884.5" y="837.5117">p95 = 110 ms</text></g><g class="link" data-entity-1="ent0002" data-entity-2="ent0003" data-link-type="dependency" id="lnk17"><polygon fill="#181818" points="1094,177.7307,1098,168.7307,1094,172.7307,1090,168.7307,1094,177.7307" style="stroke:#181818;stroke-width:1;"/><path d="M1094,123.249 C1094,142.8805 1094,157.6247 1094,171.7307" fill="none" style="stroke:#181818;stroke-width:1;"/><text fill="#000000" font-family="sans-serif" font-size="13" lengthAdjust="spacing" textLength="111.8521" x="1096" y="155.5684">1) submit request</text></g><g class="link" data-entity-1="ent0003" data-entity-2="ent0004" data-link-type="dependency" id="lnk18"><polygon fill="#181818" points="1010.5586,268.7649,1015.9206,260.5036,1011.3428,263.8268,1008.0196,259.249,1010.5586,268.7649" style="stroke:#181818;stroke-width:1;"/><path d="M1047.1881,214.141 C1038.9056,218.8867 1031.0192,224.7766 1025,232 C1016.362,242.3662 1013.3284,251.3223 1011.4996,262.8392" fill="none" style="stroke:#181818;stroke-width:1;"/><text fill="#000000" font-family="sans-serif" font-size="13" lengthAdjust="spacing" textLength="127.0293" x="1027" y="246.5684">2) POST /api/search</text></g><g class="link" data-entity-1="ent0004" data-entity-2="ent0005" data-link-type="dependency" id="lnk19"><polygon fill="#181818" points="992.0124,359.8435,997.976,352.0055,993.1629,354.9777,990.1907,350.1646,992.0124,359.8435" style="stroke:#181818;stroke-width:1;"/><path d="M1004.9287,305.2181 C1001.3981,320.1498 997.5906,336.2521 993.393,354.0045" fill="none" style="stroke:#181818;stroke-width:1;"/><text fill="#000000" font-family="sans-serif" font-size="13" lengthAdjust="spacing" textLength="99.9819" x="1003" y="337.5684">3) pick backend</text></g><g class="link" data-entity-1="ent0005" data-entity-2="ent0006" data-link-type="dependency" id="lnk20"><polygon fill="#181818" points="955.353,475.9939,962.1072,468.8259,957.0085,471.2759,954.5584,466.1772,955.353,475.9939" style="stroke:#181818;stroke-width:1;"/><path d="M974.5949,421.1546 C968.669,438.0434 963.2568,453.4682 957.3395,470.3323" fill="none" style="stroke:#181818;stroke-width:1;"/><text fill="#000000" font-family="sans-serif" font-size="13" lengthAdjust="spacing" textLength="54.1328" x="970" y="453.5684">4) target</text></g><g class="link" data-entity-1="ent0006" data-entity-2="ent0007" data-link-type="dependency" id="lnk21"><polygon fill="#181818" points="817.6618,591.8616,827.3738,590.2255,821.83,589.1001,822.9555,583.5563,817.6618,591.8616" style="stroke:#181818;stroke-width:1;"/><path d="M900.4311,537.0269 C874.1707,554.4244 846.5292,572.7369 822.6637,588.5478" fill="none" style="stroke:#181818;stroke-width:1;"/><text fill="#000000" font-family="sans-serif" font-size="13" lengthAdjust="spacing" textLength="50.0386" x="872" y="569.5684">5) route</text></g><g class="link" data-entity-1="ent0007" data-entity-2="ent0008" data-link-type="dependency" id="lnk22"><polygon fill="#181818" points="607.6803,691.9027,617.5286,692.0149,612.2722,689.9242,614.3629,684.6678,607.6803,691.9027" style="stroke:#181818;stroke-width:1;"/><path d="M734.9433,637.0682 C696.2668,653.733 648.9784,674.1084 613.1906,689.5285" fill="none" style="stroke:#181818;stroke-width:1;"/><text fill="#000000" font-family="sans-serif" font-size="13" lengthAdjust="spacing" textLength="70.3765" x="692" y="669.5684">6) delegate</text></g><g class="link" data-entity-1="ent0008" data-entity-2="ent0009" data-link-type="dependency" id="lnk23"><polygon fill="#181818" points="220.3011,790.6855,230.0279,789.14,224.4949,787.963,225.6719,782.4299,220.3011,790.6855" style="stroke:#181818;stroke-width:1;"/><path d="M416.2943,721.6932 C380.2023,726.8866 342.2435,734.5874 308,746 C276.3418,756.551 248.4898,772.3858 225.3336,787.4185" fill="none" style="stroke:#181818;stroke-width:1;"/><text fill="#000000" font-family="sans-serif" font-size="13" lengthAdjust="spacing" textLength="74.2549" x="310" y="760.5684">7) build key</text></g><g class="link" data-entity-1="ent0008" data-entity-2="ent0010" data-link-type="dependency" id="lnk24"><polygon fill="#181818" points="547.1138,1040.4415,543.8022,1031.1661,543.665,1036.8213,538.0098,1036.6842,547.1138,1040.4415" style="stroke:#181818;stroke-width:1;"/><path d="M495.0576,728.1306 C466.2121,738.8625 435.9486,755.9865 419,783 C404.5914,805.9653 410.857,818.1407 419,844 C444.1636,923.911 504.6188,995.8343 542.9753,1036.0973" fill="none" style="stroke:#181818;stroke-width:1;"/><text fill="#000000" font-family="sans-serif" font-size="13" lengthAdjust="spacing" textLength="100.0581" x="435" y="876.5684">8) cache lookup</text></g><g class="link" data-entity-1="ent0008" data-entity-2="ent0011" data-link-type="dependency" id="lnk25"><polygon fill="#181818" points="565.6369,790.9531,569.901,782.0752,565.7846,785.9553,561.9045,781.8389,565.6369,790.9531" style="stroke:#181818;stroke-width:1;"/><path d="M567.4911,728.2181 C566.9795,745.5253 566.3669,766.2525 565.8141,784.9557" fill="none" style="stroke:#181818;stroke-width:1;"/><text fill="#000000" font-family="sans-serif" font-size="13" lengthAdjust="spacing" textLength="100.9531" x="569" y="760.5684">9) shard resolve</text></g><g class="link" data-entity-1="ent0008" data-entity-2="ent0012" data-link-type="dependency" id="lnk26"><polygon fill="#181818" points="763.878,795.2855,758.4313,787.0798,759.6592,792.6017,754.1373,793.8297,763.878,795.2855" style="stroke:#181818;stroke-width:1;"/><path d="M627.4208,728.0062 C643.1391,733.1595 659.9213,739.2625 675,746 C706.7955,760.2069 736.0301,777.57 758.8155,792.065" fill="none" style="stroke:#181818;stroke-width:1;"/><text fill="#000000" font-family="sans-serif" font-size="13" lengthAdjust="spacing" textLength="74.0708" x="713" y="760.5684">10) execute</text></g><g class="link" data-entity-1="ent0012" data-entity-2="ent0013" data-link-type="dependency" id="lnk27"><polygon fill="#181818" points="697.8809,915.4481,704.9899,908.6318,699.7734,910.8201,697.5851,905.6037,697.8809,915.4481" style="stroke:#181818;stroke-width:1;"/><path d="M762.4273,831.5895 C750.7822,839.764 737.7022,850.3163 728,862 C714.6649,878.0584 706.6417,894.0251 700.152,909.8945" fill="none" style="stroke:#181818;stroke-width:1;"/><text fill="#000000" font-family="sans-serif" font-size="13" lengthAdjust="spacing" textLength="99.874" x="730" y="876.5684">11) query shard</text></g><g class="link" data-entity-1="ent0012" data-entity-2="ent0014" data-link-type="dependency" id="lnk28"><polygon fill="#181818" points="860.62,898.9628,858.2119,889.4128,857.5338,895.0289,851.9178,894.3508,860.62,898.9628" style="stroke:#181818;stroke-width:1;"/><path d="M805.3799,831.9326 C813.1574,840.8448 822.6858,851.9123 831,862 C840.7992,873.8894 847.5616,882.3178 856.9166,894.2421" fill="none" style="stroke:#181818;stroke-width:1;"/><text fill="#000000" font-family="sans-serif" font-size="13" lengthAdjust="spacing" textLength="116.4097" x="848" y="876.5684">12) produce result</text></g><g class="link" data-entity-1="ent0014" data-entity-2="ent0010" data-link-type="dependency" id="lnk29"><polygon fill="#181818" points="647.5157,1040.487,657.3622,1040.7022,652.1281,1038.5566,654.2736,1033.3224,647.5157,1040.487" style="stroke:#181818;stroke-width:1;"/><path d="M799.047,977.0666 C750.7642,997.2744 697.8568,1019.4177 653.0505,1038.1705" fill="none" style="stroke:#181818;stroke-width:1;"/><text fill="#000000" font-family="sans-serif" font-size="13" lengthAdjust="spacing" textLength="95.9004" x="755" y="1009.5684">13) write cache</text></g><g class="link" data-entity-1="ent0014" data-entity-2="ent0015" data-link-type="dependency" id="lnk30"><polygon fill="#181818" points="997.1249,1031.9362,992.9479,1023.0169,993.3481,1028.6596,987.7054,1029.0598,997.1249,1031.9362" style="stroke:#181818;stroke-width:1;"/><path d="M934.0814,977.2428 C953.9288,994.4614 972.7698,1010.8069 992.5927,1028.0043" fill="none" style="stroke:#181818;stroke-width:1;"/><text fill="#000000" font-family="sans-serif" font-size="13" lengthAdjust="spacing" textLength="124.3442" x="977" y="1009.5684">14) headers + body</text></g><g class="link" data-entity-1="ent0015" data-entity-2="ent0003" data-link-type="dependency" id="lnk31"><polygon fill="#181818" points="1135.3215,214.1175,1140.8727,222.2529,1139.5742,216.7471,1145.08,215.4486,1135.3215,214.1175" style="stroke:#181818;stroke-width:1;"/><path d="M1110.0318,1031.906 C1140.7026,1009.5181 1170,977.9411 1170,939 C1170,286 1170,286 1170,286 C1170,261.2065 1171.1086,251.6582 1156,232 C1150.5015,224.8457 1148.2005,222.081 1140.4247,217.273" fill="none" style="stroke:#181818;stroke-width:1;"/><text fill="#000000" font-family="sans-serif" font-size="13" lengthAdjust="spacing" textLength="63.6606" x="1172" y="619.5684">15) return</text></g><g class="link" data-entity-1="ent0008" data-entity-2="ent0016" data-link-type="dependency" id="lnk32"><polygon fill="#181818" points="923.6581,782.9332,916.3174,776.3672,918.8988,781.4007,913.8653,783.9821,923.6581,782.9332" style="stroke:#181818;stroke-width:1;"/><path d="M698.2928,728.0286 C729.484,732.9964 762.5626,739.0066 793,746 C836.5866,756.0145 878.4681,768.3817 917.9469,781.0942" fill="none" style="stroke:#181818;stroke-width:1;"/><text fill="#000000" font-family="sans-serif" font-size="13" lengthAdjust="spacing" textLength="137.0903" x="862" y="760.5684">record miss + latency</text></g><?plantuml-src VLRVRziu37xtNw7BNiuOWjffT-sChK2QDhYYwxQhDznUPPjBTB4bLPAx1klzxoFb7x6JO6yI-PaVINrayeSsV5LnLlAjgXsp5JWkUM0tGcfkUCLA8S5jDJ1bt5e5WSh-WzonYO77E4c1ctpz08yrM3TXt38oirVNY-NYvfpz31ZxfmQpPU_P12IOrPPLt6p0JT1ppv_dbQgbG-yiGiE2MqX1Mk744w3nEoyjeFsQEvwXZw9ePTtAWAK0Nq1owUx0XryPLUifdx1txtJ9fOJYyZBuVvVl3yYwVF-5RAwrJvUicEx5pNnvqqFB7lb1yUAAOxWSZCUNH-0sNqDHbs3Yv07BAHvK9kGLppSWYxJp-Qzto2w8Rv7abQ_DqDTJGvzJUTPnusvb0S_eZ8QrP4tmE6bPRcIXbP3D2tJEenJMbpNbManZug2sVZKbkTREwUJaf44W84ukeejeCkJrrgOpSork9MQ8dV6iv1enYjPxMnpo3aBcd7gIFkN9eZbvO0hcIUGmV4lFqgFPg-LoUReuw-DiO7jLYxAWL_2Hxdh3GPG1jelZKzwCbFJIIGsF8-s-pA8NByt3Gb01K0ZhDU-pE5x1cDQR_XPke7Zdw4bEeyWEAJ0lH_Krka_NtA3Mo7J0qY97D5Y9Af_WJvhGS3XAE3H3bbAjHBuR0BmqolVc0_4NE2lTV7xkPfFm1KtA_7nvUXrvUalf_eOMBNNfTYk5Rkr6yOxHKlceFdt7ZbcCTpRpcsFSmj4Im4KXAlXgWUZFPwooUxnw86earafQwAZrcBWTk6EZb3h37QosHoRvsxIFF-scvhTJWLlOYDp6oNrpI2NNTgtSmKDtm4D1tGjBxOdnhj--eLCSjQNx7JsTNZRRBs4e1rjd5RRFD9iyy0v2b1um2zddJ-aNTeAPjWiYA5l4OASbx3HaMkIRRWS50oTX-zMKiBEGuNfRWGjw8o7y6adOcx2HSE3lvDXDViB-2ba19QomtS7EJgZXP2ViF6GPtSYy1sp7C64NOND6VQjDhVTWtHmbx6tOAhWTeprWEntOooXay0mv9TyQoLyqZSPEF_hVGnzh2EXKZY3ijZQgg54ZZJNedAFCOsps3oCSDAOHg14kOh3DQ-3O3yjUiqmLsw1n3L-VcWskDdAlfbvR2VfpXRLNfAdN-5_1WSotlm00?></g></svg>